<?xml version="1.0" encoding="utf-8" standalone="no"?>
<!DOCTYPE svg PUBLIC "-//W3C//DTD SVG 1.1//EN"
  "http://www.w3.org/Graphics/SVG/1.1/DTD/svg11.dtd">
<svg xmlns:xlink="http://www.w3.org/1999/xlink" width="432pt" height="216pt" viewBox="0 0 432 216" xmlns="http://www.w3.org/2000/svg" version="1.1">
 <metadata>
  <rdf:RDF xmlns:dc="http://purl.org/dc/elements/1.1/" xmlns:cc="http://creativecommons.org/ns#" xmlns:rdf="http://www.w3.org/1999/02/22-rdf-syntax-ns#">
   <cc:Work>
    <dc:type rdf:resource="http://purl.org/dc/dcmitype/StillImage"/>
    <dc:date>2022-05-14T21:59:46.952667</dc:date>
    <dc:format>image/svg+xml</dc:format>
    <dc:creator>
     <cc:Agent>
      <dc:title>Matplotlib v3.5.1, https://matplotlib.org/</dc:title>
     </cc:Agent>
    </dc:creator>
   </cc:Work>
  </rdf:RDF>
 </metadata>
 <defs>
  <style type="text/css">*{stroke-linejoin: round; stroke-linecap: butt}</style>
 </defs>
 <g id="figure_1">
  <g id="patch_1">
   <path d="M 0 216 
L 432 216 
L 432 0 
L 0 0 
z
" style="fill: #ffffff"/>
  </g>
  <g id="axes_1">
   <g id="patch_2">
    <path d="M 54.02 174.04 
L 421.2 174.04 
L 421.2 26.88 
L 54.02 26.88 
z
" style="fill: #ffffff"/>
   </g>
   <g id="matplotlib.axis_1">
    <g id="xtick_1">
     <g id="line2d_1">
      <path d="M 70.71 174.04 
L 70.71 26.88 
" clip-path="url(#p84dbcb9048)" style="fill: none; stroke: #b0b0b0; stroke-width: 0.8; stroke-linecap: square"/>
     </g>
     <g id="line2d_2">
      <defs>
       <path id="mb0772482a8" d="M 0 0 
L 0 3.5 
" style="stroke: #000000; stroke-width: 0.8"/>
      </defs>
      <g>
       <use xlink:href="#mb0772482a8" x="70.71" y="174.04" style="stroke: #000000; stroke-width: 0.8"/>
      </g>
     </g>
     <g id="text_1">
      <!-- 0.0 -->
      <g transform="translate(62.758438 188.638438)scale(0.1 -0.1)">
       <defs>
        <path id="DejaVuSans-30" d="M 2034 4250 
Q 1547 4250 1301 3770 
Q 1056 3291 1056 2328 
Q 1056 1369 1301 889 
Q 1547 409 2034 409 
Q 2525 409 2770 889 
Q 3016 1369 3016 2328 
Q 3016 3291 2770 3770 
Q 2525 4250 2034 4250 
z
M 2034 4750 
Q 2819 4750 3233 4129 
Q 3647 3509 3647 2328 
Q 3647 1150 3233 529 
Q 2819 -91 2034 -91 
Q 1250 -91 836 529 
Q 422 1150 422 2328 
Q 422 3509 836 4129 
Q 1250 4750 2034 4750 
z
" transform="scale(0.015625)"/>
        <path id="DejaVuSans-2e" d="M 684 794 
L 1344 794 
L 1344 0 
L 684 0 
L 684 794 
z
" transform="scale(0.015625)"/>
       </defs>
       <use xlink:href="#DejaVuSans-30"/>
       <use xlink:href="#DejaVuSans-2e" x="63.623047"/>
       <use xlink:href="#DejaVuSans-30" x="95.410156"/>
      </g>
     </g>
    </g>
    <g id="xtick_2">
     <g id="line2d_3">
      <path d="M 138.529683 174.04 
L 138.529683 26.88 
" clip-path="url(#p84dbcb9048)" style="fill: none; stroke: #b0b0b0; stroke-width: 0.8; stroke-linecap: square"/>
     </g>
     <g id="line2d_4">
      <g>
       <use xlink:href="#mb0772482a8" x="138.529683" y="174.04" style="stroke: #000000; stroke-width: 0.8"/>
      </g>
     </g>
     <g id="text_2">
      <!-- 0.2 -->
      <g transform="translate(130.57812 188.638438)scale(0.1 -0.1)">
       <defs>
        <path id="DejaVuSans-32" d="M 1228 531 
L 3431 531 
L 3431 0 
L 469 0 
L 469 531 
Q 828 903 1448 1529 
Q 2069 2156 2228 2338 
Q 2531 2678 2651 2914 
Q 2772 3150 2772 3378 
Q 2772 3750 2511 3984 
Q 2250 4219 1831 4219 
Q 1534 4219 1204 4116 
Q 875 4013 500 3803 
L 500 4441 
Q 881 4594 1212 4672 
Q 1544 4750 1819 4750 
Q 2544 4750 2975 4387 
Q 3406 4025 3406 3419 
Q 3406 3131 3298 2873 
Q 3191 2616 2906 2266 
Q 2828 2175 2409 1742 
Q 1991 1309 1228 531 
z
" transform="scale(0.015625)"/>
       </defs>
       <use xlink:href="#DejaVuSans-30"/>
       <use xlink:href="#DejaVuSans-2e" x="63.623047"/>
       <use xlink:href="#DejaVuSans-32" x="95.410156"/>
      </g>
     </g>
    </g>
    <g id="xtick_3">
     <g id="line2d_5">
      <path d="M 206.349365 174.04 
L 206.349365 26.88 
" clip-path="url(#p84dbcb9048)" style="fill: none; stroke: #b0b0b0; stroke-width: 0.8; stroke-linecap: square"/>
     </g>
     <g id="line2d_6">
      <g>
       <use xlink:href="#mb0772482a8" x="206.349365" y="174.04" style="stroke: #000000; stroke-width: 0.8"/>
      </g>
     </g>
     <g id="text_3">
      <!-- 0.4 -->
      <g transform="translate(198.397803 188.638438)scale(0.1 -0.1)">
       <defs>
        <path id="DejaVuSans-34" d="M 2419 4116 
L 825 1625 
L 2419 1625 
L 2419 4116 
z
M 2253 4666 
L 3047 4666 
L 3047 1625 
L 3713 1625 
L 3713 1100 
L 3047 1100 
L 3047 0 
L 2419 0 
L 2419 1100 
L 313 1100 
L 313 1709 
L 2253 4666 
z
" transform="scale(0.015625)"/>
       </defs>
       <use xlink:href="#DejaVuSans-30"/>
       <use xlink:href="#DejaVuSans-2e" x="63.623047"/>
       <use xlink:href="#DejaVuSans-34" x="95.410156"/>
      </g>
     </g>
    </g>
    <g id="xtick_4">
     <g id="line2d_7">
      <path d="M 274.169048 174.04 
L 274.169048 26.88 
" clip-path="url(#p84dbcb9048)" style="fill: none; stroke: #b0b0b0; stroke-width: 0.8; stroke-linecap: square"/>
     </g>
     <g id="line2d_8">
      <g>
       <use xlink:href="#mb0772482a8" x="274.169048" y="174.04" style="stroke: #000000; stroke-width: 0.8"/>
      </g>
     </g>
     <g id="text_4">
      <!-- 0.6 -->
      <g transform="translate(266.217485 188.638438)scale(0.1 -0.1)">
       <defs>
        <path id="DejaVuSans-36" d="M 2113 2584 
Q 1688 2584 1439 2293 
Q 1191 2003 1191 1497 
Q 1191 994 1439 701 
Q 1688 409 2113 409 
Q 2538 409 2786 701 
Q 3034 994 3034 1497 
Q 3034 2003 2786 2293 
Q 2538 2584 2113 2584 
z
M 3366 4563 
L 3366 3988 
Q 3128 4100 2886 4159 
Q 2644 4219 2406 4219 
Q 1781 4219 1451 3797 
Q 1122 3375 1075 2522 
Q 1259 2794 1537 2939 
Q 1816 3084 2150 3084 
Q 2853 3084 3261 2657 
Q 3669 2231 3669 1497 
Q 3669 778 3244 343 
Q 2819 -91 2113 -91 
Q 1303 -91 875 529 
Q 447 1150 447 2328 
Q 447 3434 972 4092 
Q 1497 4750 2381 4750 
Q 2619 4750 2861 4703 
Q 3103 4656 3366 4563 
z
" transform="scale(0.015625)"/>
       </defs>
       <use xlink:href="#DejaVuSans-30"/>
       <use xlink:href="#DejaVuSans-2e" x="63.623047"/>
       <use xlink:href="#DejaVuSans-36" x="95.410156"/>
      </g>
     </g>
    </g>
    <g id="xtick_5">
     <g id="line2d_9">
      <path d="M 341.98873 174.04 
L 341.98873 26.88 
" clip-path="url(#p84dbcb9048)" style="fill: none; stroke: #b0b0b0; stroke-width: 0.8; stroke-linecap: square"/>
     </g>
     <g id="line2d_10">
      <g>
       <use xlink:href="#mb0772482a8" x="341.98873" y="174.04" style="stroke: #000000; stroke-width: 0.8"/>
      </g>
     </g>
     <g id="text_5">
      <!-- 0.8 -->
      <g transform="translate(334.037168 188.638438)scale(0.1 -0.1)">
       <defs>
        <path id="DejaVuSans-38" d="M 2034 2216 
Q 1584 2216 1326 1975 
Q 1069 1734 1069 1313 
Q 1069 891 1326 650 
Q 1584 409 2034 409 
Q 2484 409 2743 651 
Q 3003 894 3003 1313 
Q 3003 1734 2745 1975 
Q 2488 2216 2034 2216 
z
M 1403 2484 
Q 997 2584 770 2862 
Q 544 3141 544 3541 
Q 544 4100 942 4425 
Q 1341 4750 2034 4750 
Q 2731 4750 3128 4425 
Q 3525 4100 3525 3541 
Q 3525 3141 3298 2862 
Q 3072 2584 2669 2484 
Q 3125 2378 3379 2068 
Q 3634 1759 3634 1313 
Q 3634 634 3220 271 
Q 2806 -91 2034 -91 
Q 1263 -91 848 271 
Q 434 634 434 1313 
Q 434 1759 690 2068 
Q 947 2378 1403 2484 
z
M 1172 3481 
Q 1172 3119 1398 2916 
Q 1625 2713 2034 2713 
Q 2441 2713 2670 2916 
Q 2900 3119 2900 3481 
Q 2900 3844 2670 4047 
Q 2441 4250 2034 4250 
Q 1625 4250 1398 4047 
Q 1172 3844 1172 3481 
z
" transform="scale(0.015625)"/>
       </defs>
       <use xlink:href="#DejaVuSans-30"/>
       <use xlink:href="#DejaVuSans-2e" x="63.623047"/>
       <use xlink:href="#DejaVuSans-38" x="95.410156"/>
      </g>
     </g>
    </g>
    <g id="xtick_6">
     <g id="line2d_11">
      <path d="M 409.808413 174.04 
L 409.808413 26.88 
" clip-path="url(#p84dbcb9048)" style="fill: none; stroke: #b0b0b0; stroke-width: 0.8; stroke-linecap: square"/>
     </g>
     <g id="line2d_12">
      <g>
       <use xlink:href="#mb0772482a8" x="409.808413" y="174.04" style="stroke: #000000; stroke-width: 0.8"/>
      </g>
     </g>
     <g id="text_6">
      <!-- 1.0 -->
      <g transform="translate(401.85685 188.638438)scale(0.1 -0.1)">
       <defs>
        <path id="DejaVuSans-31" d="M 794 531 
L 1825 531 
L 1825 4091 
L 703 3866 
L 703 4441 
L 1819 4666 
L 2450 4666 
L 2450 531 
L 3481 531 
L 3481 0 
L 794 0 
L 794 531 
z
" transform="scale(0.015625)"/>
       </defs>
       <use xlink:href="#DejaVuSans-31"/>
       <use xlink:href="#DejaVuSans-2e" x="63.623047"/>
       <use xlink:href="#DejaVuSans-30" x="95.410156"/>
      </g>
     </g>
    </g>
    <g id="text_7">
     <!-- Normalized Phase [rad/2π] -->
     <g transform="translate(171.076406 202.316563)scale(0.1 -0.1)">
      <defs>
       <path id="DejaVuSans-4e" d="M 628 4666 
L 1478 4666 
L 3547 763 
L 3547 4666 
L 4159 4666 
L 4159 0 
L 3309 0 
L 1241 3903 
L 1241 0 
L 628 0 
L 628 4666 
z
" transform="scale(0.015625)"/>
       <path id="DejaVuSans-6f" d="M 1959 3097 
Q 1497 3097 1228 2736 
Q 959 2375 959 1747 
Q 959 1119 1226 758 
Q 1494 397 1959 397 
Q 2419 397 2687 759 
Q 2956 1122 2956 1747 
Q 2956 2369 2687 2733 
Q 2419 3097 1959 3097 
z
M 1959 3584 
Q 2709 3584 3137 3096 
Q 3566 2609 3566 1747 
Q 3566 888 3137 398 
Q 2709 -91 1959 -91 
Q 1206 -91 779 398 
Q 353 888 353 1747 
Q 353 2609 779 3096 
Q 1206 3584 1959 3584 
z
" transform="scale(0.015625)"/>
       <path id="DejaVuSans-72" d="M 2631 2963 
Q 2534 3019 2420 3045 
Q 2306 3072 2169 3072 
Q 1681 3072 1420 2755 
Q 1159 2438 1159 1844 
L 1159 0 
L 581 0 
L 581 3500 
L 1159 3500 
L 1159 2956 
Q 1341 3275 1631 3429 
Q 1922 3584 2338 3584 
Q 2397 3584 2469 3576 
Q 2541 3569 2628 3553 
L 2631 2963 
z
" transform="scale(0.015625)"/>
       <path id="DejaVuSans-6d" d="M 3328 2828 
Q 3544 3216 3844 3400 
Q 4144 3584 4550 3584 
Q 5097 3584 5394 3201 
Q 5691 2819 5691 2113 
L 5691 0 
L 5113 0 
L 5113 2094 
Q 5113 2597 4934 2840 
Q 4756 3084 4391 3084 
Q 3944 3084 3684 2787 
Q 3425 2491 3425 1978 
L 3425 0 
L 2847 0 
L 2847 2094 
Q 2847 2600 2669 2842 
Q 2491 3084 2119 3084 
Q 1678 3084 1418 2786 
Q 1159 2488 1159 1978 
L 1159 0 
L 581 0 
L 581 3500 
L 1159 3500 
L 1159 2956 
Q 1356 3278 1631 3431 
Q 1906 3584 2284 3584 
Q 2666 3584 2933 3390 
Q 3200 3197 3328 2828 
z
" transform="scale(0.015625)"/>
       <path id="DejaVuSans-61" d="M 2194 1759 
Q 1497 1759 1228 1600 
Q 959 1441 959 1056 
Q 959 750 1161 570 
Q 1363 391 1709 391 
Q 2188 391 2477 730 
Q 2766 1069 2766 1631 
L 2766 1759 
L 2194 1759 
z
M 3341 1997 
L 3341 0 
L 2766 0 
L 2766 531 
Q 2569 213 2275 61 
Q 1981 -91 1556 -91 
Q 1019 -91 701 211 
Q 384 513 384 1019 
Q 384 1609 779 1909 
Q 1175 2209 1959 2209 
L 2766 2209 
L 2766 2266 
Q 2766 2663 2505 2880 
Q 2244 3097 1772 3097 
Q 1472 3097 1187 3025 
Q 903 2953 641 2809 
L 641 3341 
Q 956 3463 1253 3523 
Q 1550 3584 1831 3584 
Q 2591 3584 2966 3190 
Q 3341 2797 3341 1997 
z
" transform="scale(0.015625)"/>
       <path id="DejaVuSans-6c" d="M 603 4863 
L 1178 4863 
L 1178 0 
L 603 0 
L 603 4863 
z
" transform="scale(0.015625)"/>
       <path id="DejaVuSans-69" d="M 603 3500 
L 1178 3500 
L 1178 0 
L 603 0 
L 603 3500 
z
M 603 4863 
L 1178 4863 
L 1178 4134 
L 603 4134 
L 603 4863 
z
" transform="scale(0.015625)"/>
       <path id="DejaVuSans-7a" d="M 353 3500 
L 3084 3500 
L 3084 2975 
L 922 459 
L 3084 459 
L 3084 0 
L 275 0 
L 275 525 
L 2438 3041 
L 353 3041 
L 353 3500 
z
" transform="scale(0.015625)"/>
       <path id="DejaVuSans-65" d="M 3597 1894 
L 3597 1613 
L 953 1613 
Q 991 1019 1311 708 
Q 1631 397 2203 397 
Q 2534 397 2845 478 
Q 3156 559 3463 722 
L 3463 178 
Q 3153 47 2828 -22 
Q 2503 -91 2169 -91 
Q 1331 -91 842 396 
Q 353 884 353 1716 
Q 353 2575 817 3079 
Q 1281 3584 2069 3584 
Q 2775 3584 3186 3129 
Q 3597 2675 3597 1894 
z
M 3022 2063 
Q 3016 2534 2758 2815 
Q 2500 3097 2075 3097 
Q 1594 3097 1305 2825 
Q 1016 2553 972 2059 
L 3022 2063 
z
" transform="scale(0.015625)"/>
       <path id="DejaVuSans-64" d="M 2906 2969 
L 2906 4863 
L 3481 4863 
L 3481 0 
L 2906 0 
L 2906 525 
Q 2725 213 2448 61 
Q 2172 -91 1784 -91 
Q 1150 -91 751 415 
Q 353 922 353 1747 
Q 353 2572 751 3078 
Q 1150 3584 1784 3584 
Q 2172 3584 2448 3432 
Q 2725 3281 2906 2969 
z
M 947 1747 
Q 947 1113 1208 752 
Q 1469 391 1925 391 
Q 2381 391 2643 752 
Q 2906 1113 2906 1747 
Q 2906 2381 2643 2742 
Q 2381 3103 1925 3103 
Q 1469 3103 1208 2742 
Q 947 2381 947 1747 
z
" transform="scale(0.015625)"/>
       <path id="DejaVuSans-20" transform="scale(0.015625)"/>
       <path id="DejaVuSans-50" d="M 1259 4147 
L 1259 2394 
L 2053 2394 
Q 2494 2394 2734 2622 
Q 2975 2850 2975 3272 
Q 2975 3691 2734 3919 
Q 2494 4147 2053 4147 
L 1259 4147 
z
M 628 4666 
L 2053 4666 
Q 2838 4666 3239 4311 
Q 3641 3956 3641 3272 
Q 3641 2581 3239 2228 
Q 2838 1875 2053 1875 
L 1259 1875 
L 1259 0 
L 628 0 
L 628 4666 
z
" transform="scale(0.015625)"/>
       <path id="DejaVuSans-68" d="M 3513 2113 
L 3513 0 
L 2938 0 
L 2938 2094 
Q 2938 2591 2744 2837 
Q 2550 3084 2163 3084 
Q 1697 3084 1428 2787 
Q 1159 2491 1159 1978 
L 1159 0 
L 581 0 
L 581 4863 
L 1159 4863 
L 1159 2956 
Q 1366 3272 1645 3428 
Q 1925 3584 2291 3584 
Q 2894 3584 3203 3211 
Q 3513 2838 3513 2113 
z
" transform="scale(0.015625)"/>
       <path id="DejaVuSans-73" d="M 2834 3397 
L 2834 2853 
Q 2591 2978 2328 3040 
Q 2066 3103 1784 3103 
Q 1356 3103 1142 2972 
Q 928 2841 928 2578 
Q 928 2378 1081 2264 
Q 1234 2150 1697 2047 
L 1894 2003 
Q 2506 1872 2764 1633 
Q 3022 1394 3022 966 
Q 3022 478 2636 193 
Q 2250 -91 1575 -91 
Q 1294 -91 989 -36 
Q 684 19 347 128 
L 347 722 
Q 666 556 975 473 
Q 1284 391 1588 391 
Q 1994 391 2212 530 
Q 2431 669 2431 922 
Q 2431 1156 2273 1281 
Q 2116 1406 1581 1522 
L 1381 1569 
Q 847 1681 609 1914 
Q 372 2147 372 2553 
Q 372 3047 722 3315 
Q 1072 3584 1716 3584 
Q 2034 3584 2315 3537 
Q 2597 3491 2834 3397 
z
" transform="scale(0.015625)"/>
       <path id="DejaVuSans-5b" d="M 550 4863 
L 1875 4863 
L 1875 4416 
L 1125 4416 
L 1125 -397 
L 1875 -397 
L 1875 -844 
L 550 -844 
L 550 4863 
z
" transform="scale(0.015625)"/>
       <path id="DejaVuSans-2f" d="M 1625 4666 
L 2156 4666 
L 531 -594 
L 0 -594 
L 1625 4666 
z
" transform="scale(0.015625)"/>
       <path id="DejaVuSans-3c0" d="M 231 3500 
L 3584 3500 
L 3584 2925 
L 3144 2925 
L 3144 775 
Q 3144 550 3220 451 
Q 3297 353 3469 353 
Q 3516 353 3584 361 
Q 3653 369 3675 372 
L 3675 -44 
Q 3566 -84 3450 -103 
Q 3334 -122 3219 -122 
Q 2844 -122 2700 83 
Q 2556 288 2556 838 
L 2556 2925 
L 1266 2925 
L 1266 0 
L 678 0 
L 678 2925 
L 231 2925 
L 231 3500 
z
" transform="scale(0.015625)"/>
       <path id="DejaVuSans-5d" d="M 1947 4863 
L 1947 -844 
L 622 -844 
L 622 -397 
L 1369 -397 
L 1369 4416 
L 622 4416 
L 622 4863 
L 1947 4863 
z
" transform="scale(0.015625)"/>
      </defs>
      <use xlink:href="#DejaVuSans-4e"/>
      <use xlink:href="#DejaVuSans-6f" x="74.804688"/>
      <use xlink:href="#DejaVuSans-72" x="135.986328"/>
      <use xlink:href="#DejaVuSans-6d" x="175.349609"/>
      <use xlink:href="#DejaVuSans-61" x="272.761719"/>
      <use xlink:href="#DejaVuSans-6c" x="334.041016"/>
      <use xlink:href="#DejaVuSans-69" x="361.824219"/>
      <use xlink:href="#DejaVuSans-7a" x="389.607422"/>
      <use xlink:href="#DejaVuSans-65" x="442.097656"/>
      <use xlink:href="#DejaVuSans-64" x="503.621094"/>
      <use xlink:href="#DejaVuSans-20" x="567.097656"/>
      <use xlink:href="#DejaVuSans-50" x="598.884766"/>
      <use xlink:href="#DejaVuSans-68" x="659.1875"/>
      <use xlink:href="#DejaVuSans-61" x="722.566406"/>
      <use xlink:href="#DejaVuSans-73" x="783.845703"/>
      <use xlink:href="#DejaVuSans-65" x="835.945312"/>
      <use xlink:href="#DejaVuSans-20" x="897.46875"/>
      <use xlink:href="#DejaVuSans-5b" x="929.255859"/>
      <use xlink:href="#DejaVuSans-72" x="968.269531"/>
      <use xlink:href="#DejaVuSans-61" x="1009.382812"/>
      <use xlink:href="#DejaVuSans-64" x="1070.662109"/>
      <use xlink:href="#DejaVuSans-2f" x="1134.138672"/>
      <use xlink:href="#DejaVuSans-32" x="1167.830078"/>
      <use xlink:href="#DejaVuSans-3c0" x="1231.453125"/>
      <use xlink:href="#DejaVuSans-5d" x="1291.658203"/>
     </g>
    </g>
   </g>
   <g id="matplotlib.axis_2">
    <g id="ytick_1">
     <g id="line2d_13">
      <path d="M 54.02 167.351731 
L 421.2 167.351731 
" clip-path="url(#p84dbcb9048)" style="fill: none; stroke: #b0b0b0; stroke-width: 0.8; stroke-linecap: square"/>
     </g>
     <g id="line2d_14">
      <defs>
       <path id="m7e774c488b" d="M 0 0 
L -3.5 0 
" style="stroke: #000000; stroke-width: 0.8"/>
      </defs>
      <g>
       <use xlink:href="#m7e774c488b" x="54.02" y="167.351731" style="stroke: #000000; stroke-width: 0.8"/>
      </g>
     </g>
     <g id="text_8">
      <!-- 0.00 -->
      <g transform="translate(24.754375 171.15095)scale(0.1 -0.1)">
       <use xlink:href="#DejaVuSans-30"/>
       <use xlink:href="#DejaVuSans-2e" x="63.623047"/>
       <use xlink:href="#DejaVuSans-30" x="95.410156"/>
       <use xlink:href="#DejaVuSans-30" x="159.033203"/>
      </g>
     </g>
    </g>
    <g id="ytick_2">
     <g id="line2d_15">
      <path d="M 54.02 138.813016 
L 421.2 138.813016 
" clip-path="url(#p84dbcb9048)" style="fill: none; stroke: #b0b0b0; stroke-width: 0.8; stroke-linecap: square"/>
     </g>
     <g id="line2d_16">
      <g>
       <use xlink:href="#m7e774c488b" x="54.02" y="138.813016" style="stroke: #000000; stroke-width: 0.8"/>
      </g>
     </g>
     <g id="text_9">
      <!-- 0.02 -->
      <g transform="translate(24.754375 142.612235)scale(0.1 -0.1)">
       <use xlink:href="#DejaVuSans-30"/>
       <use xlink:href="#DejaVuSans-2e" x="63.623047"/>
       <use xlink:href="#DejaVuSans-30" x="95.410156"/>
       <use xlink:href="#DejaVuSans-32" x="159.033203"/>
      </g>
     </g>
    </g>
    <g id="ytick_3">
     <g id="line2d_17">
      <path d="M 54.02 110.2743 
L 421.2 110.2743 
" clip-path="url(#p84dbcb9048)" style="fill: none; stroke: #b0b0b0; stroke-width: 0.8; stroke-linecap: square"/>
     </g>
     <g id="line2d_18">
      <g>
       <use xlink:href="#m7e774c488b" x="54.02" y="110.2743" style="stroke: #000000; stroke-width: 0.8"/>
      </g>
     </g>
     <g id="text_10">
      <!-- 0.04 -->
      <g transform="translate(24.754375 114.073519)scale(0.1 -0.1)">
       <use xlink:href="#DejaVuSans-30"/>
       <use xlink:href="#DejaVuSans-2e" x="63.623047"/>
       <use xlink:href="#DejaVuSans-30" x="95.410156"/>
       <use xlink:href="#DejaVuSans-34" x="159.033203"/>
      </g>
     </g>
    </g>
    <g id="ytick_4">
     <g id="line2d_19">
      <path d="M 54.02 81.735585 
L 421.2 81.735585 
" clip-path="url(#p84dbcb9048)" style="fill: none; stroke: #b0b0b0; stroke-width: 0.8; stroke-linecap: square"/>
     </g>
     <g id="line2d_20">
      <g>
       <use xlink:href="#m7e774c488b" x="54.02" y="81.735585" style="stroke: #000000; stroke-width: 0.8"/>
      </g>
     </g>
     <g id="text_11">
      <!-- 0.06 -->
      <g transform="translate(24.754375 85.534804)scale(0.1 -0.1)">
       <use xlink:href="#DejaVuSans-30"/>
       <use xlink:href="#DejaVuSans-2e" x="63.623047"/>
       <use xlink:href="#DejaVuSans-30" x="95.410156"/>
       <use xlink:href="#DejaVuSans-36" x="159.033203"/>
      </g>
     </g>
    </g>
    <g id="ytick_5">
     <g id="line2d_21">
      <path d="M 54.02 53.19687 
L 421.2 53.19687 
" clip-path="url(#p84dbcb9048)" style="fill: none; stroke: #b0b0b0; stroke-width: 0.8; stroke-linecap: square"/>
     </g>
     <g id="line2d_22">
      <g>
       <use xlink:href="#m7e774c488b" x="54.02" y="53.19687" style="stroke: #000000; stroke-width: 0.8"/>
      </g>
     </g>
     <g id="text_12">
      <!-- 0.08 -->
      <g transform="translate(24.754375 56.996089)scale(0.1 -0.1)">
       <use xlink:href="#DejaVuSans-30"/>
       <use xlink:href="#DejaVuSans-2e" x="63.623047"/>
       <use xlink:href="#DejaVuSans-30" x="95.410156"/>
       <use xlink:href="#DejaVuSans-38" x="159.033203"/>
      </g>
     </g>
    </g>
    <g id="text_13">
     <!-- Amplitude -->
     <g transform="translate(18.674688 126.082656)rotate(-90)scale(0.1 -0.1)">
      <defs>
       <path id="DejaVuSans-41" d="M 2188 4044 
L 1331 1722 
L 3047 1722 
L 2188 4044 
z
M 1831 4666 
L 2547 4666 
L 4325 0 
L 3669 0 
L 3244 1197 
L 1141 1197 
L 716 0 
L 50 0 
L 1831 4666 
z
" transform="scale(0.015625)"/>
       <path id="DejaVuSans-70" d="M 1159 525 
L 1159 -1331 
L 581 -1331 
L 581 3500 
L 1159 3500 
L 1159 2969 
Q 1341 3281 1617 3432 
Q 1894 3584 2278 3584 
Q 2916 3584 3314 3078 
Q 3713 2572 3713 1747 
Q 3713 922 3314 415 
Q 2916 -91 2278 -91 
Q 1894 -91 1617 61 
Q 1341 213 1159 525 
z
M 3116 1747 
Q 3116 2381 2855 2742 
Q 2594 3103 2138 3103 
Q 1681 3103 1420 2742 
Q 1159 2381 1159 1747 
Q 1159 1113 1420 752 
Q 1681 391 2138 391 
Q 2594 391 2855 752 
Q 3116 1113 3116 1747 
z
" transform="scale(0.015625)"/>
       <path id="DejaVuSans-74" d="M 1172 4494 
L 1172 3500 
L 2356 3500 
L 2356 3053 
L 1172 3053 
L 1172 1153 
Q 1172 725 1289 603 
Q 1406 481 1766 481 
L 2356 481 
L 2356 0 
L 1766 0 
Q 1100 0 847 248 
Q 594 497 594 1153 
L 594 3053 
L 172 3053 
L 172 3500 
L 594 3500 
L 594 4494 
L 1172 4494 
z
" transform="scale(0.015625)"/>
       <path id="DejaVuSans-75" d="M 544 1381 
L 544 3500 
L 1119 3500 
L 1119 1403 
Q 1119 906 1312 657 
Q 1506 409 1894 409 
Q 2359 409 2629 706 
Q 2900 1003 2900 1516 
L 2900 3500 
L 3475 3500 
L 3475 0 
L 2900 0 
L 2900 538 
Q 2691 219 2414 64 
Q 2138 -91 1772 -91 
Q 1169 -91 856 284 
Q 544 659 544 1381 
z
M 1991 3584 
L 1991 3584 
z
" transform="scale(0.015625)"/>
      </defs>
      <use xlink:href="#DejaVuSans-41"/>
      <use xlink:href="#DejaVuSans-6d" x="68.408203"/>
      <use xlink:href="#DejaVuSans-70" x="165.820312"/>
      <use xlink:href="#DejaVuSans-6c" x="229.296875"/>
      <use xlink:href="#DejaVuSans-69" x="257.080078"/>
      <use xlink:href="#DejaVuSans-74" x="284.863281"/>
      <use xlink:href="#DejaVuSans-75" x="324.072266"/>
      <use xlink:href="#DejaVuSans-64" x="387.451172"/>
      <use xlink:href="#DejaVuSans-65" x="450.927734"/>
     </g>
    </g>
   </g>
   <g id="line2d_23">
    <path d="M 70.71 145.05586 
L 76.008413 145.05586 
L 81.306825 145.05586 
L 86.605238 145.05586 
L 91.903651 145.05586 
L 97.202063 145.05586 
L 102.500476 145.05586 
L 107.798889 145.05586 
L 113.097302 145.05586 
L 118.395714 145.05586 
L 123.694127 145.05586 
L 128.99254 145.05586 
L 134.290952 145.05586 
L 139.589365 145.05586 
L 144.887778 145.05586 
L 150.18619 145.05586 
L 155.484603 145.05586 
L 160.783016 145.05586 
L 166.081429 145.05586 
L 171.379841 145.05586 
L 176.678254 145.05586 
L 181.976667 145.05586 
L 187.275079 145.05586 
L 192.573492 145.05586 
L 197.871905 145.05586 
L 203.170317 145.05586 
L 208.46873 145.05586 
L 213.767143 145.05586 
L 219.065556 145.05586 
L 224.363968 145.05586 
L 229.662381 145.05586 
L 234.960794 145.05586 
L 240.259206 145.05586 
L 245.557619 145.05586 
L 250.856032 145.05586 
L 256.154444 145.05586 
L 261.452857 145.05586 
L 266.75127 145.05586 
L 272.049683 145.05586 
L 277.348095 145.05586 
L 282.646508 145.05586 
L 287.944921 145.05586 
L 293.243333 145.05586 
L 298.541746 145.05586 
L 303.840159 145.05586 
L 309.138571 145.05586 
L 314.436984 145.05586 
L 319.735397 145.05586 
L 325.03381 145.05586 
L 330.332222 145.05586 
L 335.630635 145.05586 
L 340.929048 145.05586 
L 346.22746 145.05586 
L 351.525873 145.05586 
L 356.824286 145.05586 
L 362.122698 145.05586 
L 367.421111 145.05586 
L 372.719524 145.05586 
L 378.017937 145.05586 
L 383.316349 145.05586 
L 388.614762 145.05586 
L 393.913175 145.05586 
L 399.211587 145.05586 
L 404.51 145.05586 
" clip-path="url(#p84dbcb9048)" style="fill: none; stroke: #0d0887; stroke-linecap: square"/>
   </g>
   <g id="line2d_24">
    <path d="M 70.71 149.741375 
L 76.008413 147.92783 
L 81.306825 145.947738 
L 86.605238 143.810066 
L 91.903651 141.531183 
L 97.202063 139.13588 
L 102.500476 136.658032 
L 107.798889 134.140754 
L 113.097302 131.635903 
L 118.395714 129.202805 
L 123.694127 126.906175 
L 128.99254 124.813279 
L 134.290952 122.990465 
L 139.589365 121.499333 
L 144.887778 120.392846 
L 150.18619 119.711772 
L 155.484603 119.481819 
L 160.783016 119.711772 
L 166.081429 120.392846 
L 171.379841 121.499333 
L 176.678254 122.990465 
L 181.976667 124.813279 
L 187.275079 126.906175 
L 192.573492 129.202805 
L 197.871905 131.635903 
L 203.170317 134.140754 
L 208.46873 136.658032 
L 213.767143 139.13588 
L 219.065556 141.531183 
L 224.363968 143.810066 
L 229.662381 145.947738 
L 234.960794 147.92783 
L 240.259206 149.741375 
L 245.557619 151.385594 
L 250.856032 152.862628 
L 256.154444 154.178294 
L 261.452857 155.340961 
L 266.75127 156.360581 
L 272.049683 157.247877 
L 277.348095 158.013714 
L 282.646508 158.668616 
L 287.944921 159.222416 
L 293.243333 159.684025 
L 298.541746 160.061277 
L 303.840159 160.360843 
L 309.138571 160.588188 
L 314.436984 160.747557 
L 319.735397 160.841972 
L 325.03381 160.873243 
L 330.332222 160.841972 
L 335.630635 160.747557 
L 340.929048 160.588188 
L 346.22746 160.360843 
L 351.525873 160.061277 
L 356.824286 159.684025 
L 362.122698 159.222416 
L 367.421111 158.668616 
L 372.719524 158.013714 
L 378.017937 157.247877 
L 383.316349 156.360581 
L 388.614762 155.340961 
L 393.913175 154.178294 
L 399.211587 152.862628 
L 404.51 151.385594 
" clip-path="url(#p84dbcb9048)" style="fill: none; stroke: #5c01a6; stroke-linecap: square"/>
   </g>
   <g id="line2d_25">
    <path d="M 70.71 157.571061 
L 76.008413 155.452875 
L 81.306825 152.90326 
L 86.605238 149.87313 
L 91.903651 146.325414 
L 97.202063 142.243356 
L 102.500476 137.639807 
L 107.798889 132.566443 
L 113.097302 127.121387 
L 118.395714 121.453394 
L 123.694127 115.760733 
L 128.99254 110.283333 
L 134.290952 105.287673 
L 139.589365 101.045183 
L 144.887778 97.806417 
L 150.18619 95.774471 
L 155.484603 95.081813 
L 160.783016 95.774471 
L 166.081429 97.806417 
L 171.379841 101.045183 
L 176.678254 105.287673 
L 181.976667 110.283333 
L 187.275079 115.760733 
L 192.573492 121.453394 
L 197.871905 127.121387 
L 203.170317 132.566443 
L 208.46873 137.639807 
L 213.767143 142.243356 
L 219.065556 146.325414 
L 224.363968 149.87313 
L 229.662381 152.90326 
L 234.960794 155.452875 
L 240.259206 157.571061 
L 245.557619 159.312176 
L 250.856032 160.730857 
L 256.154444 161.878667 
L 261.452857 162.802123 
L 266.75127 163.541787 
L 272.049683 164.132098 
L 277.348095 164.601675 
L 282.646508 164.973887 
L 287.944921 165.267527 
L 293.243333 165.497502 
L 298.541746 165.675471 
L 303.840159 165.810396 
L 309.138571 165.909015 
L 314.436984 165.976203 
L 319.735397 166.015252 
L 325.03381 166.028061 
L 330.332222 166.015252 
L 335.630635 165.976203 
L 340.929048 165.909015 
L 346.22746 165.810396 
L 351.525873 165.675471 
L 356.824286 165.497502 
L 362.122698 165.267527 
L 367.421111 164.973887 
L 372.719524 164.601675 
L 378.017937 164.132098 
L 383.316349 163.541787 
L 388.614762 162.802123 
L 393.913175 161.878667 
L 399.211587 160.730857 
L 404.51 159.312176 
" clip-path="url(#p84dbcb9048)" style="fill: none; stroke: #9c179e; stroke-linecap: square"/>
   </g>
   <g id="line2d_26">
    <path d="M 70.71 162.783647 
L 76.008413 161.222034 
L 81.306825 159.149839 
L 86.605238 156.438805 
L 91.903651 152.952941 
L 97.202063 148.562496 
L 102.500476 143.16499 
L 107.798889 136.71273 
L 113.097302 129.244112 
L 118.395714 120.913398 
L 123.694127 112.011357 
L 128.99254 102.968212 
L 134.290952 94.331795 
L 139.589365 86.718174 
L 144.887778 80.738747 
L 150.18619 76.915219 
L 155.484603 75.599308 
L 160.783016 76.915219 
L 166.081429 80.738747 
L 171.379841 86.718174 
L 176.678254 94.331795 
L 181.976667 102.968212 
L 187.275079 112.011357 
L 192.573492 120.913398 
L 197.871905 129.244112 
L 203.170317 136.71273 
L 208.46873 143.16499 
L 213.767143 148.562496 
L 219.065556 152.952941 
L 224.363968 156.438805 
L 229.662381 159.149839 
L 234.960794 161.222034 
L 240.259206 162.783647 
L 245.557619 163.94742 
L 250.856032 164.807514 
L 256.154444 165.439559 
L 261.452857 165.902485 
L 266.75127 166.241127 
L 272.049683 166.488969 
L 277.348095 166.670658 
L 282.646508 166.80414 
L 287.944921 166.902374 
L 293.243333 166.974658 
L 298.541746 167.02762 
L 303.840159 167.065954 
L 309.138571 167.092938 
L 314.436984 167.110804 
L 319.735397 167.12099 
L 325.03381 167.1243 
L 330.332222 167.12099 
L 335.630635 167.110804 
L 340.929048 167.092938 
L 346.22746 167.065954 
L 351.525873 167.02762 
L 356.824286 166.974658 
L 362.122698 166.902374 
L 367.421111 166.80414 
L 372.719524 166.670658 
L 378.017937 166.488969 
L 383.316349 166.241127 
L 388.614762 165.902485 
L 393.913175 165.439559 
L 399.211587 164.807514 
L 404.51 163.94742 
" clip-path="url(#p84dbcb9048)" style="fill: none; stroke: #cc4778; stroke-linecap: square"/>
   </g>
   <g id="line2d_27">
    <path d="M 70.71 165.378981 
L 76.008413 164.431983 
L 81.306825 163.046676 
L 86.605238 161.051619 
L 91.903651 158.234534 
L 97.202063 154.350869 
L 102.500476 149.146488 
L 107.798889 142.398536 
L 113.097302 133.975105 
L 118.395714 123.907827 
L 123.694127 112.463049 
L 128.99254 100.189317 
L 134.290952 87.916113 
L 139.589365 76.685038 
L 144.887778 67.611427 
L 150.18619 61.69794 
L 155.484603 59.643207 
L 160.783016 61.69794 
L 166.081429 67.611427 
L 171.379841 76.685038 
L 176.678254 87.916113 
L 181.976667 100.189317 
L 187.275079 112.463049 
L 192.573492 123.907827 
L 197.871905 133.975105 
L 203.170317 142.398536 
L 208.46873 149.146488 
L 213.767143 154.350869 
L 219.065556 158.234534 
L 224.363968 161.051619 
L 229.662381 163.046676 
L 234.960794 164.431983 
L 240.259206 165.378981 
L 245.557619 166.018827 
L 250.856032 166.447737 
L 256.154444 166.734005 
L 261.452857 166.924874 
L 266.75127 167.052386 
L 272.049683 167.137961 
L 277.348095 167.195769 
L 282.646508 167.23513 
L 287.944921 167.26215 
L 293.243333 167.280829 
L 298.541746 167.293786 
L 303.840159 167.302739 
L 309.138571 167.308807 
L 314.436984 167.312712 
L 319.735397 167.314896 
L 325.03381 167.315599 
L 330.332222 167.314896 
L 335.630635 167.312712 
L 340.929048 167.308807 
L 346.22746 167.302739 
L 351.525873 167.293786 
L 356.824286 167.280829 
L 362.122698 167.26215 
L 367.421111 167.23513 
L 372.719524 167.195769 
L 378.017937 167.137961 
L 383.316349 167.052386 
L 388.614762 166.924874 
L 393.913175 166.734005 
L 399.211587 166.447737 
L 404.51 166.018827 
" clip-path="url(#p84dbcb9048)" style="fill: none; stroke: #ed7953; stroke-linecap: square"/>
   </g>
   <g id="line2d_28">
    <path d="M 70.71 166.53323 
L 76.008413 166.015564 
L 81.306825 165.180767 
L 86.605238 163.857396 
L 91.903651 161.805399 
L 97.202063 158.709131 
L 102.500476 154.186611 
L 107.798889 147.826917 
L 113.097302 139.266225 
L 118.395714 128.304498 
L 123.694127 115.047995 
L 128.99254 100.04057 
L 134.290952 84.328754 
L 139.589365 69.40523 
L 144.887778 57.002943 
L 150.18619 48.765145 
L 155.484603 45.875363 
L 160.783016 48.765145 
L 166.081429 57.002943 
L 171.379841 69.40523 
L 176.678254 84.328754 
L 181.976667 100.04057 
L 187.275079 115.047995 
L 192.573492 128.304498 
L 197.871905 139.266225 
L 203.170317 147.826917 
L 208.46873 154.186611 
L 213.767143 158.709131 
L 219.065556 161.805399 
L 224.363968 163.857396 
L 229.662381 165.180767 
L 234.960794 166.015564 
L 240.259206 166.53323 
L 245.557619 166.850339 
L 250.856032 167.043138 
L 256.154444 167.160008 
L 261.452857 167.230941 
L 266.75127 167.274215 
L 272.049683 167.300843 
L 277.348095 167.317419 
L 282.646508 167.327877 
L 287.944921 167.334574 
L 293.243333 167.338922 
L 298.541746 167.341778 
L 303.840159 167.343662 
L 309.138571 167.344891 
L 314.436984 167.34566 
L 319.735397 167.346082 
L 325.03381 167.346216 
L 330.332222 167.346082 
L 335.630635 167.34566 
L 340.929048 167.344891 
L 346.22746 167.343662 
L 351.525873 167.341778 
L 356.824286 167.338922 
L 362.122698 167.334574 
L 367.421111 167.327877 
L 372.719524 167.317419 
L 378.017937 167.300843 
L 383.316349 167.274215 
L 388.614762 167.230941 
L 393.913175 167.160008 
L 399.211587 167.043138 
L 404.51 166.850339 
" clip-path="url(#p84dbcb9048)" style="fill: none; stroke: #fdb42f; stroke-linecap: square"/>
   </g>
   <g id="line2d_29">
    <path d="M 70.71 167.020117 
L 76.008413 166.754637 
L 81.306825 166.282694 
L 86.605238 165.459182 
L 91.903651 164.057025 
L 97.202063 161.741472 
L 102.500476 158.055233 
L 107.798889 152.433618 
L 113.097302 144.274255 
L 118.395714 133.08143 
L 123.694127 118.683131 
L 128.99254 101.477721 
L 134.290952 82.619709 
L 139.589365 64.028896 
L 144.887778 48.136792 
L 150.18619 37.378989 
L 155.484603 33.569091 
L 160.783016 37.378989 
L 166.081429 48.136792 
L 171.379841 64.028896 
L 176.678254 82.619709 
L 181.976667 101.477721 
L 187.275079 118.683131 
L 192.573492 133.08143 
L 197.871905 144.274255 
L 203.170317 152.433618 
L 208.46873 158.055233 
L 213.767143 161.741472 
L 219.065556 164.057025 
L 224.363968 165.459182 
L 229.662381 166.282694 
L 234.960794 166.754637 
L 240.259206 167.020117 
L 245.557619 167.167559 
L 250.856032 167.248865 
L 256.154444 167.293625 
L 261.452857 167.318354 
L 266.75127 167.33213 
L 272.049683 167.339902 
L 277.348095 167.34436 
L 282.646508 167.346966 
L 287.944921 167.348522 
L 293.243333 167.349472 
L 298.541746 167.350062 
L 303.840159 167.350433 
L 309.138571 167.350667 
L 314.436984 167.350809 
L 319.735397 167.350885 
L 325.03381 167.350909 
L 330.332222 167.350885 
L 335.630635 167.350809 
L 340.929048 167.350667 
L 346.22746 167.350433 
L 351.525873 167.350062 
L 356.824286 167.349472 
L 362.122698 167.348522 
L 367.421111 167.346966 
L 372.719524 167.34436 
L 378.017937 167.339902 
L 383.316349 167.33213 
L 388.614762 167.318354 
L 393.913175 167.293625 
L 399.211587 167.248865 
L 404.51 167.167559 
" clip-path="url(#p84dbcb9048)" style="fill: none; stroke: #f0f921; stroke-linecap: square"/>
   </g>
   <g id="patch_3">
    <path d="M 54.02 174.04 
L 54.02 26.88 
" style="fill: none; stroke: #000000; stroke-width: 0.8; stroke-linejoin: miter; stroke-linecap: square"/>
   </g>
   <g id="patch_4">
    <path d="M 421.2 174.04 
L 421.2 26.88 
" style="fill: none; stroke: #000000; stroke-width: 0.8; stroke-linejoin: miter; stroke-linecap: square"/>
   </g>
   <g id="patch_5">
    <path d="M 54.02 174.04 
L 421.2 174.04 
" style="fill: none; stroke: #000000; stroke-width: 0.8; stroke-linejoin: miter; stroke-linecap: square"/>
   </g>
   <g id="patch_6">
    <path d="M 54.02 26.88 
L 421.2 26.88 
" style="fill: none; stroke: #000000; stroke-width: 0.8; stroke-linejoin: miter; stroke-linecap: square"/>
   </g>
   <g id="text_14">
    <!-- e^(skew * sin(ωt)), Amplitude is normalized -->
    <g transform="translate(105.252813 20.88)scale(0.12 -0.12)">
     <defs>
      <path id="DejaVuSans-5e" d="M 2988 4666 
L 4684 2925 
L 4056 2925 
L 2681 4159 
L 1306 2925 
L 678 2925 
L 2375 4666 
L 2988 4666 
z
" transform="scale(0.015625)"/>
      <path id="DejaVuSans-28" d="M 1984 4856 
Q 1566 4138 1362 3434 
Q 1159 2731 1159 2009 
Q 1159 1288 1364 580 
Q 1569 -128 1984 -844 
L 1484 -844 
Q 1016 -109 783 600 
Q 550 1309 550 2009 
Q 550 2706 781 3412 
Q 1013 4119 1484 4856 
L 1984 4856 
z
" transform="scale(0.015625)"/>
      <path id="DejaVuSans-6b" d="M 581 4863 
L 1159 4863 
L 1159 1991 
L 2875 3500 
L 3609 3500 
L 1753 1863 
L 3688 0 
L 2938 0 
L 1159 1709 
L 1159 0 
L 581 0 
L 581 4863 
z
" transform="scale(0.015625)"/>
      <path id="DejaVuSans-77" d="M 269 3500 
L 844 3500 
L 1563 769 
L 2278 3500 
L 2956 3500 
L 3675 769 
L 4391 3500 
L 4966 3500 
L 4050 0 
L 3372 0 
L 2619 2869 
L 1863 0 
L 1184 0 
L 269 3500 
z
" transform="scale(0.015625)"/>
      <path id="DejaVuSans-2a" d="M 3009 3897 
L 1888 3291 
L 3009 2681 
L 2828 2375 
L 1778 3009 
L 1778 1831 
L 1422 1831 
L 1422 3009 
L 372 2375 
L 191 2681 
L 1313 3291 
L 191 3897 
L 372 4206 
L 1422 3572 
L 1422 4750 
L 1778 4750 
L 1778 3572 
L 2828 4206 
L 3009 3897 
z
" transform="scale(0.015625)"/>
      <path id="DejaVuSans-6e" d="M 3513 2113 
L 3513 0 
L 2938 0 
L 2938 2094 
Q 2938 2591 2744 2837 
Q 2550 3084 2163 3084 
Q 1697 3084 1428 2787 
Q 1159 2491 1159 1978 
L 1159 0 
L 581 0 
L 581 3500 
L 1159 3500 
L 1159 2956 
Q 1366 3272 1645 3428 
Q 1925 3584 2291 3584 
Q 2894 3584 3203 3211 
Q 3513 2838 3513 2113 
z
" transform="scale(0.015625)"/>
      <path id="DejaVuSans-3c9" d="M 1719 -91 
Q 422 -91 422 1766 
Q 422 2500 906 3500 
L 1525 3500 
Q 1078 2500 1078 1750 
Q 1078 397 1772 397 
Q 2406 397 2406 2078 
L 2938 2078 
Q 2938 397 3572 397 
Q 4266 397 4266 1750 
Q 4266 2500 3819 3500 
L 4438 3500 
Q 4922 2500 4922 1766 
Q 4922 -91 3625 -91 
Q 2775 -91 2672 844 
Q 2544 -91 1719 -91 
z
" transform="scale(0.015625)"/>
      <path id="DejaVuSans-29" d="M 513 4856 
L 1013 4856 
Q 1481 4119 1714 3412 
Q 1947 2706 1947 2009 
Q 1947 1309 1714 600 
Q 1481 -109 1013 -844 
L 513 -844 
Q 928 -128 1133 580 
Q 1338 1288 1338 2009 
Q 1338 2731 1133 3434 
Q 928 4138 513 4856 
z
" transform="scale(0.015625)"/>
      <path id="DejaVuSans-2c" d="M 750 794 
L 1409 794 
L 1409 256 
L 897 -744 
L 494 -744 
L 750 256 
L 750 794 
z
" transform="scale(0.015625)"/>
     </defs>
     <use xlink:href="#DejaVuSans-65"/>
     <use xlink:href="#DejaVuSans-5e" x="61.523438"/>
     <use xlink:href="#DejaVuSans-28" x="145.3125"/>
     <use xlink:href="#DejaVuSans-73" x="184.326172"/>
     <use xlink:href="#DejaVuSans-6b" x="236.425781"/>
     <use xlink:href="#DejaVuSans-65" x="290.710938"/>
     <use xlink:href="#DejaVuSans-77" x="352.234375"/>
     <use xlink:href="#DejaVuSans-20" x="434.021484"/>
     <use xlink:href="#DejaVuSans-2a" x="465.808594"/>
     <use xlink:href="#DejaVuSans-20" x="515.808594"/>
     <use xlink:href="#DejaVuSans-73" x="547.595703"/>
     <use xlink:href="#DejaVuSans-69" x="599.695312"/>
     <use xlink:href="#DejaVuSans-6e" x="627.478516"/>
     <use xlink:href="#DejaVuSans-28" x="690.857422"/>
     <use xlink:href="#DejaVuSans-3c9" x="729.871094"/>
     <use xlink:href="#DejaVuSans-74" x="813.611328"/>
     <use xlink:href="#DejaVuSans-29" x="852.820312"/>
     <use xlink:href="#DejaVuSans-29" x="891.833984"/>
     <use xlink:href="#DejaVuSans-2c" x="930.847656"/>
     <use xlink:href="#DejaVuSans-20" x="962.634766"/>
     <use xlink:href="#DejaVuSans-41" x="994.421875"/>
     <use xlink:href="#DejaVuSans-6d" x="1062.830078"/>
     <use xlink:href="#DejaVuSans-70" x="1160.242188"/>
     <use xlink:href="#DejaVuSans-6c" x="1223.71875"/>
     <use xlink:href="#DejaVuSans-69" x="1251.501953"/>
     <use xlink:href="#DejaVuSans-74" x="1279.285156"/>
     <use xlink:href="#DejaVuSans-75" x="1318.494141"/>
     <use xlink:href="#DejaVuSans-64" x="1381.873047"/>
     <use xlink:href="#DejaVuSans-65" x="1445.349609"/>
     <use xlink:href="#DejaVuSans-20" x="1506.873047"/>
     <use xlink:href="#DejaVuSans-69" x="1538.660156"/>
     <use xlink:href="#DejaVuSans-73" x="1566.443359"/>
     <use xlink:href="#DejaVuSans-20" x="1618.542969"/>
     <use xlink:href="#DejaVuSans-6e" x="1650.330078"/>
     <use xlink:href="#DejaVuSans-6f" x="1713.708984"/>
     <use xlink:href="#DejaVuSans-72" x="1774.890625"/>
     <use xlink:href="#DejaVuSans-6d" x="1814.253906"/>
     <use xlink:href="#DejaVuSans-61" x="1911.666016"/>
     <use xlink:href="#DejaVuSans-6c" x="1972.945312"/>
     <use xlink:href="#DejaVuSans-69" x="2000.728516"/>
     <use xlink:href="#DejaVuSans-7a" x="2028.511719"/>
     <use xlink:href="#DejaVuSans-65" x="2081.001953"/>
     <use xlink:href="#DejaVuSans-64" x="2142.525391"/>
    </g>
   </g>
   <g id="legend_1">
    <g id="patch_7">
     <path d="M 235.696875 93.5925 
L 414.2 93.5925 
Q 416.2 93.5925 416.2 91.5925 
L 416.2 33.88 
Q 416.2 31.88 414.2 31.88 
L 235.696875 31.88 
Q 233.696875 31.88 233.696875 33.88 
L 233.696875 91.5925 
Q 233.696875 93.5925 235.696875 93.5925 
z
" style="fill: #ffffff; opacity: 0.8; stroke: #cccccc; stroke-linejoin: miter"/>
    </g>
    <g id="line2d_30">
     <path d="M 237.696875 39.978437 
L 247.696875 39.978437 
L 257.696875 39.978437 
" style="fill: none; stroke: #0d0887; stroke-linecap: square"/>
    </g>
    <g id="text_15">
     <!-- skew=0.0 -->
     <g transform="translate(265.696875 43.478437)scale(0.1 -0.1)">
      <defs>
       <path id="DejaVuSans-3d" d="M 678 2906 
L 4684 2906 
L 4684 2381 
L 678 2381 
L 678 2906 
z
M 678 1631 
L 4684 1631 
L 4684 1100 
L 678 1100 
L 678 1631 
z
" transform="scale(0.015625)"/>
      </defs>
      <use xlink:href="#DejaVuSans-73"/>
      <use xlink:href="#DejaVuSans-6b" x="52.099609"/>
      <use xlink:href="#DejaVuSans-65" x="106.384766"/>
      <use xlink:href="#DejaVuSans-77" x="167.908203"/>
      <use xlink:href="#DejaVuSans-3d" x="249.695312"/>
      <use xlink:href="#DejaVuSans-30" x="333.484375"/>
      <use xlink:href="#DejaVuSans-2e" x="397.107422"/>
      <use xlink:href="#DejaVuSans-30" x="428.894531"/>
     </g>
    </g>
    <g id="line2d_31">
     <path d="M 237.696875 54.656562 
L 247.696875 54.656562 
L 257.696875 54.656562 
" style="fill: none; stroke: #5c01a6; stroke-linecap: square"/>
    </g>
    <g id="text_16">
     <!-- skew=1.0 -->
     <g transform="translate(265.696875 58.156562)scale(0.1 -0.1)">
      <use xlink:href="#DejaVuSans-73"/>
      <use xlink:href="#DejaVuSans-6b" x="52.099609"/>
      <use xlink:href="#DejaVuSans-65" x="106.384766"/>
      <use xlink:href="#DejaVuSans-77" x="167.908203"/>
      <use xlink:href="#DejaVuSans-3d" x="249.695312"/>
      <use xlink:href="#DejaVuSans-31" x="333.484375"/>
      <use xlink:href="#DejaVuSans-2e" x="397.107422"/>
      <use xlink:href="#DejaVuSans-30" x="428.894531"/>
     </g>
    </g>
    <g id="line2d_32">
     <path d="M 237.696875 69.334687 
L 247.696875 69.334687 
L 257.696875 69.334687 
" style="fill: none; stroke: #9c179e; stroke-linecap: square"/>
    </g>
    <g id="text_17">
     <!-- skew=2.0 -->
     <g transform="translate(265.696875 72.834687)scale(0.1 -0.1)">
      <use xlink:href="#DejaVuSans-73"/>
      <use xlink:href="#DejaVuSans-6b" x="52.099609"/>
      <use xlink:href="#DejaVuSans-65" x="106.384766"/>
      <use xlink:href="#DejaVuSans-77" x="167.908203"/>
      <use xlink:href="#DejaVuSans-3d" x="249.695312"/>
      <use xlink:href="#DejaVuSans-32" x="333.484375"/>
      <use xlink:href="#DejaVuSans-2e" x="397.107422"/>
      <use xlink:href="#DejaVuSans-30" x="428.894531"/>
     </g>
    </g>
    <g id="line2d_33">
     <path d="M 237.696875 84.012812 
L 247.696875 84.012812 
L 257.696875 84.012812 
" style="fill: none; stroke: #cc4778; stroke-linecap: square"/>
    </g>
    <g id="text_18">
     <!-- skew=3.0 -->
     <g transform="translate(265.696875 87.512812)scale(0.1 -0.1)">
      <defs>
       <path id="DejaVuSans-33" d="M 2597 2516 
Q 3050 2419 3304 2112 
Q 3559 1806 3559 1356 
Q 3559 666 3084 287 
Q 2609 -91 1734 -91 
Q 1441 -91 1130 -33 
Q 819 25 488 141 
L 488 750 
Q 750 597 1062 519 
Q 1375 441 1716 441 
Q 2309 441 2620 675 
Q 2931 909 2931 1356 
Q 2931 1769 2642 2001 
Q 2353 2234 1838 2234 
L 1294 2234 
L 1294 2753 
L 1863 2753 
Q 2328 2753 2575 2939 
Q 2822 3125 2822 3475 
Q 2822 3834 2567 4026 
Q 2313 4219 1838 4219 
Q 1578 4219 1281 4162 
Q 984 4106 628 3988 
L 628 4550 
Q 988 4650 1302 4700 
Q 1616 4750 1894 4750 
Q 2613 4750 3031 4423 
Q 3450 4097 3450 3541 
Q 3450 3153 3228 2886 
Q 3006 2619 2597 2516 
z
" transform="scale(0.015625)"/>
      </defs>
      <use xlink:href="#DejaVuSans-73"/>
      <use xlink:href="#DejaVuSans-6b" x="52.099609"/>
      <use xlink:href="#DejaVuSans-65" x="106.384766"/>
      <use xlink:href="#DejaVuSans-77" x="167.908203"/>
      <use xlink:href="#DejaVuSans-3d" x="249.695312"/>
      <use xlink:href="#DejaVuSans-33" x="333.484375"/>
      <use xlink:href="#DejaVuSans-2e" x="397.107422"/>
      <use xlink:href="#DejaVuSans-30" x="428.894531"/>
     </g>
    </g>
    <g id="line2d_34">
     <path d="M 334.948438 39.978437 
L 344.948438 39.978437 
L 354.948438 39.978437 
" style="fill: none; stroke: #ed7953; stroke-linecap: square"/>
    </g>
    <g id="text_19">
     <!-- skew=4.0 -->
     <g transform="translate(362.948438 43.478437)scale(0.1 -0.1)">
      <use xlink:href="#DejaVuSans-73"/>
      <use xlink:href="#DejaVuSans-6b" x="52.099609"/>
      <use xlink:href="#DejaVuSans-65" x="106.384766"/>
      <use xlink:href="#DejaVuSans-77" x="167.908203"/>
      <use xlink:href="#DejaVuSans-3d" x="249.695312"/>
      <use xlink:href="#DejaVuSans-34" x="333.484375"/>
      <use xlink:href="#DejaVuSans-2e" x="397.107422"/>
      <use xlink:href="#DejaVuSans-30" x="428.894531"/>
     </g>
    </g>
    <g id="line2d_35">
     <path d="M 334.948438 54.656562 
L 344.948438 54.656562 
L 354.948438 54.656562 
" style="fill: none; stroke: #fdb42f; stroke-linecap: square"/>
    </g>
    <g id="text_20">
     <!-- skew=5.0 -->
     <g transform="translate(362.948438 58.156562)scale(0.1 -0.1)">
      <defs>
       <path id="DejaVuSans-35" d="M 691 4666 
L 3169 4666 
L 3169 4134 
L 1269 4134 
L 1269 2991 
Q 1406 3038 1543 3061 
Q 1681 3084 1819 3084 
Q 2600 3084 3056 2656 
Q 3513 2228 3513 1497 
Q 3513 744 3044 326 
Q 2575 -91 1722 -91 
Q 1428 -91 1123 -41 
Q 819 9 494 109 
L 494 744 
Q 775 591 1075 516 
Q 1375 441 1709 441 
Q 2250 441 2565 725 
Q 2881 1009 2881 1497 
Q 2881 1984 2565 2268 
Q 2250 2553 1709 2553 
Q 1456 2553 1204 2497 
Q 953 2441 691 2322 
L 691 4666 
z
" transform="scale(0.015625)"/>
      </defs>
      <use xlink:href="#DejaVuSans-73"/>
      <use xlink:href="#DejaVuSans-6b" x="52.099609"/>
      <use xlink:href="#DejaVuSans-65" x="106.384766"/>
      <use xlink:href="#DejaVuSans-77" x="167.908203"/>
      <use xlink:href="#DejaVuSans-3d" x="249.695312"/>
      <use xlink:href="#DejaVuSans-35" x="333.484375"/>
      <use xlink:href="#DejaVuSans-2e" x="397.107422"/>
      <use xlink:href="#DejaVuSans-30" x="428.894531"/>
     </g>
    </g>
    <g id="line2d_36">
     <path d="M 334.948438 69.334687 
L 344.948438 69.334687 
L 354.948438 69.334687 
" style="fill: none; stroke: #f0f921; stroke-linecap: square"/>
    </g>
    <g id="text_21">
     <!-- skew=6.0 -->
     <g transform="translate(362.948438 72.834687)scale(0.1 -0.1)">
      <use xlink:href="#DejaVuSans-73"/>
      <use xlink:href="#DejaVuSans-6b" x="52.099609"/>
      <use xlink:href="#DejaVuSans-65" x="106.384766"/>
      <use xlink:href="#DejaVuSans-77" x="167.908203"/>
      <use xlink:href="#DejaVuSans-3d" x="249.695312"/>
      <use xlink:href="#DejaVuSans-36" x="333.484375"/>
      <use xlink:href="#DejaVuSans-2e" x="397.107422"/>
      <use xlink:href="#DejaVuSans-30" x="428.894531"/>
     </g>
    </g>
   </g>
  </g>
 </g>
 <defs>
  <clipPath id="p84dbcb9048">
   <rect x="54.02" y="26.88" width="367.18" height="147.16"/>
  </clipPath>
 </defs>
</svg>
