<?xml version="1.0" encoding="utf-8"?>
<!-- Generator: Adobe Illustrator 21.1.0, SVG Export Plug-In . SVG Version: 6.00 Build 0)  -->
<svg version="1.1" id="Layer_1" xmlns="http://www.w3.org/2000/svg" xmlns:xlink="http://www.w3.org/1999/xlink" x="0px" y="0px"
	 viewBox="0 0 116.2 107.7" style="enable-background:new 0 0 116.2 107.7;" xml:space="preserve">
<style type="text/css">
	.st0{fill-rule:evenodd;clip-rule:evenodd;}
	.st1{fill-rule:evenodd;clip-rule:evenodd;fill:none;stroke:#000000;stroke-width:0.8877;stroke-miterlimit:10;}
	.st2{fill:#FFFFFF;}
	.st3{fill-rule:evenodd;clip-rule:evenodd;fill:#FFFFFF;}
</style>
<rect x="2.1" y="1.3" class="st0" width="112.8" height="71.9"/>
<g>
	<rect x="2.1" y="1.3" class="st1" width="112.8" height="105.5"/>
</g>
<g>
	<path class="st2" d="M20.9,58.6c-0.4,0.9-1.6,3.3-4.7,3.3c-2.6,0-5.1-1.7-5.1-5.8c0-2.4,1.4-5.6,5.1-5.6c2.8,0,3.9,1.8,4.4,3.3
		l-2,0.5c-0.1-1.2-1.1-2-2.3-2c-1.8,0-3,1.3-3,3.8c0,1.5,0.6,3.8,3,3.8c1.4,0,2.3-1.1,2.6-2.2L20.9,58.6z"/>
	<path class="st2" d="M27.4,50.5c3.3,0,5.2,2.7,5.2,5.6c0,2.5-1.3,5.8-5.2,5.8c-3.2,0-5.2-2.6-5.2-5.7C22.2,53,24.2,50.5,27.4,50.5z
		 M27.4,60c1.6,0,3.1-1.2,3.1-3.7c0-1.9-1-3.9-3.2-3.9c-1.8,0-3.1,1.4-3.1,3.8C24.2,57.8,25.1,60,27.4,60z"/>
	<path class="st2" d="M42.5,61.6c0-0.3,0.2-8.9,0.2-8.9l-2.3,8.9h-1.8l-2.3-8.9c0,0,0.2,8.5,0.2,8.9h-2V50.8h2.9l2.1,8l2.1-8h2.9
		v10.8H42.5z"/>
	<path class="st2" d="M51.8,50.8c2.2,0,3.8,1.4,3.8,3.6c0,2-1.1,3.5-4,3.5h-2.1v3.7h-2V50.8H51.8z M49.6,56.3h1.8
		c1.4,0,2.2-0.7,2.2-1.9c0-1.7-1.4-1.8-2.4-1.8h-1.5V56.3z"/>
	<path class="st2" d="M63.2,61.6l-0.6-2.1h-4.1l-0.6,2.1h-2.2l3.7-10.8h2.3l3.7,10.8H63.2z M60.5,52.7l-1.5,5h3L60.5,52.7z"/>
	<path class="st2" d="M69.5,52.6v9h-2v-9h-2.9v-1.8h8v1.8H69.5z"/>
	<path class="st2" d="M74.1,61.6V50.8h2v10.8H74.1z"/>
	<path class="st2" d="M84,50.8c2.3,0,3.3,1.3,3.3,2.7c0,0.9-0.5,2.1-1.8,2.2c1,0.2,2.3,1,2.3,2.9c0,1.5-0.9,3.1-3.6,3.1h-5V50.8H84z
		 M81.2,55.1h2c0.9,0,2-0.3,2-1.4c0-1.1-1.1-1.3-1.9-1.3h-2.1V55.1z M81.2,59.9h2.7c1.4,0,1.9-0.7,1.9-1.5c0-1.5-1.5-1.7-2.3-1.7
		h-2.3V59.9z"/>
	<path class="st2" d="M90.4,61.6V50.8h2v9h4.3v1.8H90.4z"/>
	<path class="st2" d="M98,61.6V50.8h7.7v1.8H100v2.5h5.2v1.7H100v2.9h6.1v1.8H98z"/>
</g>
<path class="st3" d="M69.9,19.1h36.2l0.1,6.4h-1.7c-0.6-2.2-2.2-3.7-4.9-4.4c-1.5-0.4-3.8-0.7-6.8-0.7v16c0,1.1,0.4,1.6,1.1,1.9
	c0.8,0.4,2.4,0.4,4.8,0.4V40H77.4v-1.4c2.3,0,3.9-0.2,4.7-0.5c0.8-0.4,1.2-0.7,1.2-1.8v-16c-2.9,0-5.2,0.3-6.7,0.7
	c-2.9,0.8-4.5,2.3-4.9,4.4c-0.5,0-1.7,0-1.7,0L69.9,19.1z"/>
<g>
	<path class="st3" d="M41.5,29.9l3.3,0.4l0.1,0.1c1.3,2.7,3.4,4.8,6.3,6c2.9,1.3,6.3,1.9,10.1,1.9c3.7,0,6.3-0.4,7.8-1.3
		c1.5-0.8,2.2-1.7,2.2-2.6c0-1-0.8-1.9-2.3-2.5c-1.1-0.5-3.3-1.1-6.5-1.8L57,28.9c-5.2-1.2-9-2.4-11.1-3.6c-2.2-1.2-3.3-2.8-3.3-4.6
		c0-1.9,1.5-3.7,4.4-5.4c2.9-1.6,7.3-2.4,13.2-2.4c3,0,5.9,0.2,8.7,0.6c1.8,0.3,4.3,0.6,4.8,0.6c1.1,0,1.5-0.2,1.7-0.3
		c0.3-0.2,0.6-0.5,0.8-0.9l0.1-0.1h2.8v8.7h-2.6l-0.1-0.1c-1.1-1.8-3-3.5-5.7-4.8c-2.7-1.4-6-2-9.8-2c-2.7,0-4.9,0.3-6.4,1
		C52.8,16.3,52,17.1,52,18c0,1.1,0.7,1.9,2.1,2.5c1.5,0.6,4.8,1.5,9.8,2.6l6.1,1.4c2.7,0.6,4.9,1.3,6.5,2.1c3.1,1.5,4.7,3.3,4.7,5.4
		c0,2-1.7,3.9-5,5.6c-3.2,1.7-8.5,2.6-15.6,2.6c-1.6,0-3.3-0.1-5-0.2c-1.7-0.1-3.4-0.4-5-0.6L49.1,39c-0.4,0-0.7-0.1-1-0.1
		c-0.3,0-0.6-0.1-0.9-0.1c-0.8,0-1.3,0.1-1.6,0.3c-0.3,0.2-0.5,0.5-0.8,0.9l-0.1,0.1l-3.2,0V29.9z"/>
	<path d="M78.7,13.2v8.2h-2.3c-1.1-1.9-3-3.5-5.7-4.9c-2.7-1.4-6-2.1-9.9-2.1c-2.8,0-4.9,0.3-6.5,1c-1.6,0.7-2.4,1.5-2.4,2.5
		c0,1.2,0.8,2.1,2.3,2.7c1.5,0.6,4.8,1.5,9.9,2.6l6.1,1.4c2.7,0.6,4.9,1.3,6.5,2.1c3,1.4,4.5,3.2,4.5,5.2c0,1.9-1.6,3.7-4.9,5.4
		c-3.2,1.7-8.4,2.5-15.5,2.5c-1.6,0-3.3-0.1-5-0.2c-1.7-0.1-3.3-0.3-5-0.6l-1.6-0.3c-0.4,0-0.7-0.1-1.1-0.1c-0.3,0-0.6-0.1-0.9-0.1
		c-0.8,0-1.4,0.1-1.7,0.3c-0.3,0.2-0.6,0.5-0.8,1l-2.9,0v-9.7l2.9,0.4c1.3,2.8,3.4,4.9,6.4,6.1c3,1.3,6.3,1.9,10.1,1.9
		c3.7,0,6.3-0.4,7.9-1.3c1.6-0.9,2.3-1.8,2.3-2.8c0-1.1-0.8-2-2.5-2.8c-1.1-0.5-3.3-1.1-6.5-1.8l-5.3-1.2c-5.2-1.2-8.9-2.4-11.1-3.6
		c-2.1-1.2-3.2-2.6-3.2-4.4c0-1.8,1.4-3.6,4.2-5.2c2.9-1.6,7.2-2.4,13.1-2.4c3,0,5.9,0.2,8.6,0.6c2.8,0.4,4.4,0.6,4.8,0.6
		c0.9,0,1.5-0.1,1.9-0.3c0.3-0.2,0.6-0.6,0.8-1H78.7 M79.1,12.7h-0.5h-2.4H76L75.8,13c-0.2,0.3-0.4,0.6-0.7,0.8
		C75,13.9,74.6,14,73.6,14c-0.5,0-3.7-0.5-4.7-0.6c-2.8-0.4-5.7-0.6-8.7-0.6c-5.9,0-10.4,0.8-13.3,2.5c-3,1.7-4.5,3.5-4.5,5.6
		c0,1.9,1.2,3.5,3.5,4.8C48,26.7,51.7,28,57,29.2l5.3,1.2c3.2,0.7,5.4,1.3,6.5,1.8c1.4,0.6,2.2,1.4,2.2,2.3c0,0.8-0.7,1.6-2.1,2.4
		c-1.5,0.8-4.1,1.2-7.7,1.2c-3.7,0-7.1-0.6-10-1.9C48.3,35,46.3,33,45,30.4l-0.1-0.2l-0.3,0l-2.9-0.4l-0.5-0.1v0.5v9.7v0.5l0.5,0
		l2.9,0l0.3,0l0.1-0.2c0.2-0.4,0.4-0.6,0.7-0.8c0.1-0.1,0.5-0.3,1.5-0.3c0.2,0,0.5,0,0.8,0.1c0.3,0,0.7,0.1,1.1,0.1l1.6,0.3
		c1.6,0.3,3.3,0.5,5,0.6c1.7,0.1,3.4,0.2,5,0.2c7.2,0,12.5-0.9,15.8-2.6c3.4-1.8,5.1-3.7,5.1-5.8c0-2.2-1.6-4.1-4.8-5.6
		c-1.6-0.8-3.9-1.5-6.6-2.1L64,22.8c-5-1.1-8.3-2-9.8-2.6c-1.3-0.5-2-1.3-2-2.2c0-0.8,0.7-1.5,2.1-2.1c1.5-0.7,3.7-1,6.4-1
		c3.8,0,7.1,0.7,9.7,2c2.7,1.3,4.5,2.9,5.6,4.7l0.1,0.2h0.3h2.3h0.5v-0.5v-8.2V12.7L79.1,12.7z"/>
</g>
<g>
	<g>
		<path class="st3" d="M28.9,40.7L13.8,23c-0.6-0.7-1.2-1.2-1.8-1.5C11.4,21.2,9.6,21,8.2,21l-0.2,0v-1.4h21V21l-0.2,0
			c-2.1,0.1-3.5,0.2-4.1,0.3C24,21.4,24,21.7,24,21.9c0,0.1,0,0.3,0,0.4c0,0.1,0.1,0.2,0.2,0.3l8.8,10.8h0.1l7.6-9.9
			c0.2-0.2,0.3-0.4,0.4-0.6c0.3-0.4,0.3-0.7,0.3-0.8c0-0.3-0.1-0.7-0.8-0.8c-0.6-0.1-2-0.2-4-0.3l-0.2,0v-1.5h13.8v1.4l-0.2,0
			c-1.5,0.1-3.4,0.3-4,0.6c-0.7,0.3-1.3,0.9-2,1.7L30.7,40.7H28.9z"/>
		<path d="M50.1,19.7v1c-1.4,0.1-3.4,0.3-4.1,0.6c-0.7,0.3-1.4,0.9-2.1,1.8L30.6,40.4H29L13.9,22.8c-0.6-0.7-1.2-1.2-1.9-1.5
			c-0.6-0.3-2.5-0.5-3.9-0.6v-1h20.5v1c-2.1,0.1-3.5,0.2-4.1,0.3c-0.6,0.1-0.9,0.4-0.9,0.9c0,0.1,0,0.3,0.1,0.4
			c0.1,0.1,0.2,0.3,0.3,0.4L33,33.6h0.3l7.7-9.9c0.2-0.2,0.3-0.4,0.5-0.7c0.2-0.4,0.3-0.7,0.3-0.9c0-0.6-0.3-0.9-1-1
			c-0.6-0.1-2-0.3-4-0.3v-1H50.1 M50.6,19.3h-0.5H36.8h-0.5v0.5v1v0.5l0.5,0c2,0.1,3.3,0.2,3.9,0.3c0.6,0.1,0.6,0.4,0.6,0.6
			c0,0.1,0,0.3-0.3,0.7c-0.1,0.2-0.3,0.4-0.4,0.6l-7.5,9.7l-8.7-10.6c-0.1-0.1-0.2-0.2-0.2-0.3c0-0.1,0-0.2,0-0.3
			c0-0.1,0-0.3,0.5-0.4c0.6-0.1,1.9-0.2,4-0.3l0.5,0v-0.5v-1v-0.5h-0.5H8.2H7.7v0.5v1v0.4l0.4,0c1.7,0.1,3.2,0.3,3.7,0.5
			c0.6,0.3,1.2,0.8,1.7,1.4l15.1,17.6l0.1,0.2H29h1.6h0.2l0.1-0.2l13.4-17.3c0.6-0.8,1.3-1.3,1.9-1.6c0.5-0.3,2.1-0.5,3.9-0.6l0.4,0
			v-0.4v-1V19.3L50.6,19.3z"/>
	</g>
</g>
<g>
	<path d="M14.7,87.2h-0.5l-1.2-7.3h0.5l1,6.3l1.1-6.3H16L14.7,87.2z"/>
	<path d="M17.4,84.8v0.6c0,0.6,0,0.9,0.2,1.1c0.2,0.3,0.6,0.4,0.9,0.4c0.7,0,0.9-0.5,0.9-1.2c0-0.8-0.2-1.1-1.1-2
		c-0.8-0.8-1.3-1.3-1.3-2.3c0-0.6,0.1-1.6,1.4-1.6c1.3,0,1.4,1,1.4,1.7V82h-0.5v-0.7c0-0.4,0-1.1-0.9-1.1c-0.6,0-0.9,0.4-0.9,1.1
		s0.1,1,1.2,2.1c0.8,0.8,1.1,1.2,1.1,2.1c0,0.7-0.1,1.7-1.5,1.7c-0.9,0-1.5-0.4-1.5-1.5v-1H17.4z"/>
	<path d="M22.3,80.3v6.9h-0.5v-6.9h-1.3v-0.5h3.1v0.5H22.3z"/>
	<path d="M26.4,81.3v-0.8h0.4v0.8H26.4z M26.4,87.2V82h0.4v5.2H26.4z"/>
	<path d="M28.2,85.3v0.5c0,0.3,0,1,0.8,1c0.4,0,0.8-0.2,0.8-0.9c0-0.5-0.1-0.7-0.9-1.3c-0.6-0.5-0.9-0.8-0.9-1.6
		c0-0.4,0.1-1.1,1.1-1.1c1.1,0,1.1,0.8,1.1,1.2v0.4h-0.4v-0.4c0-0.6-0.2-0.8-0.6-0.8c-0.6,0-0.7,0.4-0.7,0.7c0,0.5,0,0.6,1,1.4
		c0.5,0.4,0.8,0.7,0.8,1.4c0,0.8-0.3,1.3-1.2,1.3c-1.1,0-1.2-0.6-1.2-1.5v-0.4H28.2z"/>
	<path d="M35.7,87.2c-0.4,0-0.6-0.1-0.7-0.4c-0.2,0.1-0.5,0.4-1,0.4c-0.7,0-1-0.6-1-1.2c0-1.5,1.4-1.6,2-2.2v-0.7
		c0-0.4-0.1-0.7-0.6-0.7c-0.5,0-0.7,0.3-0.7,1v0.3h-0.4v-0.3c0-1,0.4-1.4,1.2-1.4c0.7,0,1.1,0.4,1.1,1.1v3.6c0,0.2,0.1,0.2,0.3,0.2
		L35.7,87.2L35.7,87.2z M35,84.3c-0.3,0.2-0.6,0.3-0.9,0.5c-0.5,0.3-0.7,0.6-0.7,1.2c0,0.2,0,0.8,0.7,0.8c0.4,0,0.7-0.2,0.9-0.5
		V84.3z"/>
	<path d="M39.1,82v0.9c0.2-0.6,0.7-0.9,1.1-1.1v0.6c-0.1,0-0.3,0.1-0.4,0.2c-0.4,0.2-0.6,0.8-0.7,0.9v3.7h-0.4V82H39.1z"/>
	<path d="M43.2,86c0,0.6-0.3,1.2-1.2,1.2c-0.7,0-1.2-0.4-1.2-1.2v-2.8c0-0.6,0.3-1.2,1.2-1.2c0.8,0,1.2,0.4,1.2,1.4v1.3h-2v1.3
		c0,0.3,0.1,0.9,0.7,0.9c0.7,0,0.8-0.6,0.8-1.1v-0.4h0.4V86z M42.7,83.2c0-0.6-0.3-0.9-0.7-0.9c-0.5,0-0.8,0.4-0.8,0.9v1h1.5V83.2z"
		/>
	<path d="M46.6,87.6c0,0.9-0.6,1.3-1.3,1.3c-0.4,0-0.9-0.1-1-0.5c-0.1-0.1-0.1-0.3-0.1-0.6h0.4c0,0,0,0.2,0.1,0.4
		c0.2,0.3,0.6,0.3,0.6,0.3c0.1,0,0.8-0.1,0.8-0.8v-0.9c-0.1,0.1-0.4,0.5-0.9,0.5c-0.7,0-1-0.6-1-1.2v-2.9c0-0.9,0.5-1.2,1.1-1.2
		c0.5,0,0.8,0.3,0.9,0.5V82h0.4V87.6z M46.2,83c-0.1-0.4-0.4-0.7-0.8-0.7c-0.6,0-0.7,0.5-0.7,0.9v2.6c0,0.7,0.3,0.9,0.7,0.9
		c0.3,0,0.7-0.2,0.8-0.8V83z"/>
	<path d="M47.8,81.3v-0.8h0.4v0.8H47.8z M47.8,87.2V82h0.4v5.2H47.8z"/>
	<path d="M49.6,85.3v0.5c0,0.3,0,1,0.8,1c0.4,0,0.8-0.2,0.8-0.9c0-0.5-0.1-0.7-0.9-1.3c-0.6-0.5-0.9-0.8-0.9-1.6
		c0-0.4,0.1-1.1,1.1-1.1c1.1,0,1.1,0.8,1.1,1.2v0.4h-0.4v-0.4c0-0.6-0.2-0.8-0.6-0.8c-0.6,0-0.7,0.4-0.7,0.7c0,0.5,0,0.6,1,1.4
		c0.5,0.4,0.8,0.7,0.8,1.4c0,0.8-0.3,1.3-1.2,1.3c-1.1,0-1.2-0.6-1.2-1.5v-0.4H49.6z"/>
	<path d="M52.1,82h0.6v-1.4h0.4V82h0.8v0.4h-0.8v4.1c0,0.3,0.3,0.3,0.4,0.3c0.1,0,0.3,0,0.4,0v0.4c-0.2,0-0.3,0-0.5,0
		c-0.6,0-0.8-0.2-0.8-0.6v-4.2h-0.6V82z"/>
	<path d="M56.9,86c0,0.6-0.3,1.2-1.2,1.2c-0.7,0-1.2-0.4-1.2-1.2v-2.8c0-0.6,0.3-1.2,1.2-1.2c0.8,0,1.2,0.4,1.2,1.4v1.3h-2v1.3
		c0,0.3,0.1,0.9,0.7,0.9c0.7,0,0.8-0.6,0.8-1.1v-0.4h0.4V86z M56.5,83.2c0-0.6-0.3-0.9-0.7-0.9c-0.5,0-0.8,0.4-0.8,0.9v1h1.5V83.2z"
		/>
	<path d="M58.4,82v0.9c0.2-0.6,0.7-0.9,1.1-1.1v0.6c-0.1,0-0.3,0.1-0.4,0.2c-0.4,0.2-0.6,0.8-0.7,0.9v3.7H58V82H58.4z"/>
	<path d="M62.6,86c0,0.6-0.3,1.2-1.2,1.2c-0.7,0-1.2-0.4-1.2-1.2v-2.8c0-0.6,0.3-1.2,1.2-1.2c0.8,0,1.2,0.4,1.2,1.4v1.3h-2v1.3
		c0,0.3,0.1,0.9,0.7,0.9c0.7,0,0.8-0.6,0.8-1.1v-0.4h0.4V86z M62.1,83.2c0-0.6-0.3-0.9-0.7-0.9c-0.5,0-0.8,0.4-0.8,0.9v1h1.5V83.2z"
		/>
	<path d="M65.6,87.2v-0.6c-0.1,0.2-0.4,0.6-1,0.6c-0.5,0-1-0.3-1-1.2v-2.8c0-0.9,0.5-1.3,1.1-1.3c0.6,0,0.8,0.4,0.9,0.5v-2.6H66v7.3
		H65.6z M65.6,83.3c-0.1-0.5-0.3-0.9-0.8-0.9c-0.5,0-0.7,0.4-0.7,0.8v2.7c0,0.3,0.1,0.9,0.7,0.9c0.4,0,0.7-0.4,0.8-0.8V83.3z"/>
	<path d="M68.8,82h0.6v-1.4h0.4V82h0.8v0.4h-0.8v4.1c0,0.3,0.3,0.3,0.4,0.3c0.1,0,0.3,0,0.4,0v0.4c-0.2,0-0.3,0-0.5,0
		c-0.6,0-0.8-0.2-0.8-0.6v-4.2h-0.6V82z"/>
	<path d="M71.7,82v0.9c0.2-0.6,0.7-0.9,1.1-1.1v0.6c-0.1,0-0.3,0.1-0.4,0.2c-0.4,0.2-0.6,0.8-0.7,0.9v3.7h-0.4V82H71.7z"/>
	<path d="M76,87.2c-0.4,0-0.6-0.1-0.7-0.4c-0.2,0.1-0.5,0.4-1,0.4c-0.7,0-1-0.6-1-1.2c0-1.5,1.4-1.6,2-2.2v-0.7
		c0-0.4-0.1-0.7-0.6-0.7c-0.5,0-0.7,0.3-0.7,1v0.3h-0.4v-0.3c0-1,0.4-1.4,1.2-1.4c0.8,0,1.1,0.4,1.1,1.1v3.6c0,0.2,0.1,0.2,0.3,0.2
		L76,87.2L76,87.2z M75.3,84.3c-0.3,0.2-0.6,0.3-0.9,0.5c-0.5,0.3-0.7,0.6-0.7,1.2c0,0.2,0,0.8,0.7,0.8c0.4,0,0.7-0.2,0.9-0.5V84.3z
		"/>
	<path d="M78.9,87.2v-0.6c-0.1,0.2-0.4,0.6-1,0.6c-0.5,0-1-0.3-1-1.2v-2.8c0-0.9,0.5-1.3,1.1-1.3c0.6,0,0.8,0.4,0.9,0.5v-2.6h0.4
		v7.3H78.9z M78.8,83.3c-0.1-0.5-0.3-0.9-0.8-0.9c-0.5,0-0.7,0.4-0.7,0.8v2.7c0,0.3,0.1,0.9,0.7,0.9c0.4,0,0.8-0.4,0.8-0.8V83.3z"/>
	<path d="M82.8,86c0,0.6-0.3,1.2-1.2,1.2c-0.7,0-1.2-0.4-1.2-1.2v-2.8c0-0.6,0.3-1.2,1.2-1.2c0.8,0,1.2,0.4,1.2,1.4v1.3h-2v1.3
		c0,0.3,0.1,0.9,0.7,0.9c0.7,0,0.8-0.6,0.8-1.1v-0.4h0.4V86z M82.3,83.2c0-0.6-0.3-0.9-0.7-0.9c-0.5,0-0.8,0.4-0.8,0.9v1h1.5V83.2z"
		/>
	<path d="M87.8,87.2v-4c0-0.5-0.1-0.9-0.7-0.9c-0.4,0-0.7,0.3-0.9,0.6v4.2h-0.4V83c0-0.5-0.2-0.7-0.7-0.7c-0.5,0-0.8,0.4-0.8,0.6
		v4.3h-0.4V82h0.4v0.4c0.1-0.2,0.5-0.5,1-0.5c0.6,0,0.8,0.4,0.9,0.6c0.1-0.2,0.4-0.6,1.1-0.6c0.5,0,1,0.3,1,1.2v4.2H87.8z"/>
	<path d="M91.8,87.2c-0.4,0-0.6-0.1-0.7-0.4c-0.2,0.1-0.5,0.4-1,0.4c-0.7,0-1-0.6-1-1.2c0-1.5,1.4-1.6,2-2.2v-0.7
		c0-0.4-0.1-0.7-0.6-0.7c-0.5,0-0.7,0.3-0.7,1v0.3h-0.4v-0.3c0-1,0.4-1.4,1.2-1.4c0.7,0,1.1,0.4,1.1,1.1v3.6c0,0.2,0.1,0.2,0.3,0.2
		L91.8,87.2L91.8,87.2z M91.2,84.3c-0.3,0.2-0.6,0.3-0.9,0.5c-0.5,0.3-0.7,0.6-0.7,1.2c0,0.2,0,0.8,0.7,0.8c0.4,0,0.7-0.2,0.9-0.5
		V84.3z"/>
	<path d="M93.2,82v0.9c0.2-0.6,0.7-0.9,1.1-1.1v0.6c-0.1,0-0.3,0.1-0.4,0.2c-0.4,0.2-0.6,0.8-0.7,0.9v3.7h-0.4V82H93.2z"/>
	<path d="M97.1,87.2l-1.1-2.8l-0.5,0.8v1.9H95v-7.3h0.4v4.6l1.5-2.5h0.5l-1.2,2l1.3,3.2H97.1z"/>
	<path d="M102.7,85.8c0,1-0.6,1.4-1.2,1.4c-0.7,0-1.2-0.4-1.2-1.1v-2.9c0-0.6,0.3-1.3,1.3-1.3c0.8,0,1.2,0.5,1.2,1.3V85.8z
		 M102.3,83.3c0-0.4-0.1-0.9-0.7-0.9c-0.7,0-0.8,0.5-0.8,1v2.6c0,0.6,0.3,0.8,0.8,0.8c0.7,0,0.8-0.6,0.8-0.9V83.3z"/>
	<path d="M103.4,82h0.6v-1.3c0-0.4,0.2-0.8,0.9-0.8c0.1,0,0.2,0,0.3,0v0.4c0,0-0.1,0-0.2,0c-0.3,0-0.6,0.1-0.6,0.6V82h0.6v0.4h-0.7
		v4.8H104v-4.8h-0.6V82z"/>
	<path d="M7.5,96.8v0.6c0,0.6,0,0.9,0.2,1.1c0.2,0.3,0.6,0.4,0.9,0.4c0.7,0,0.9-0.5,0.9-1.2c0-0.8-0.2-1.1-1.1-2
		c-0.8-0.8-1.3-1.3-1.3-2.3c0-0.6,0.1-1.6,1.4-1.6c1.3,0,1.4,1,1.4,1.7V94H9.4v-0.7c0-0.4,0-1.1-0.9-1.1c-0.6,0-0.9,0.4-0.9,1.1
		s0.1,1,1.2,2.1c0.8,0.8,1.1,1.2,1.1,2.1c0,0.7-0.1,1.7-1.5,1.7c-0.9,0-1.5-0.4-1.5-1.5v-1H7.5z"/>
	<path d="M10.5,94H11v-1.4h0.4V94h0.8v0.4h-0.8v4.1c0,0.3,0.3,0.3,0.4,0.3c0.1,0,0.3,0,0.4,0v0.4c-0.2,0-0.3,0-0.5,0
		c-0.6,0-0.8-0.2-0.8-0.6v-4.2h-0.6V94z"/>
	<path d="M15.3,98.1c0,0.6-0.3,1.2-1.2,1.2c-0.7,0-1.2-0.4-1.2-1.2v-2.8c0-0.6,0.3-1.2,1.2-1.2c0.8,0,1.2,0.4,1.2,1.4v1.3h-2V98
		c0,0.3,0.1,0.9,0.7,0.9c0.7,0,0.8-0.6,0.8-1.1v-0.4h0.4V98.1z M14.8,95.2c0-0.6-0.3-0.9-0.7-0.9c-0.5,0-0.8,0.4-0.8,0.9v1h1.5V95.2
		z"/>
	<path d="M16.3,93.4v-0.8h0.4v0.8H16.3z M16.3,99.2V94h0.4v5.2H16.3z"/>
	<path d="M19.9,99.2v-4.1c0-0.4-0.1-0.8-0.6-0.8c-0.4,0-0.7,0.2-0.9,0.7v4.3H18V94h0.4v0.5c0.3-0.5,0.8-0.6,1-0.6c0.4,0,1,0.2,1,1.1
		v4.2H19.9z"/>
	<path d="M21.5,91.9H22v2.6c0.3-0.4,0.7-0.5,1-0.5c0.9,0,1,0.8,1,1.3V98c0,0.5-0.3,1.2-1.1,1.2c-0.1,0-0.6,0-0.8-0.5v0.4h-0.5V91.9z
		 M22,97.8c0,0.9,0.6,1,0.8,1c0.5,0,0.7-0.4,0.7-1v-2.6c0-0.2,0-0.9-0.7-0.9c-0.5,0-0.8,0.4-0.8,0.9V97.8z"/>
	<path d="M27.4,98.1c0,0.6-0.3,1.2-1.2,1.2c-0.7,0-1.2-0.4-1.2-1.2v-2.8c0-0.6,0.3-1.2,1.2-1.2c0.8,0,1.2,0.4,1.2,1.4v1.3h-2V98
		c0,0.3,0.1,0.9,0.7,0.9c0.7,0,0.8-0.6,0.8-1.1v-0.4h0.4V98.1z M26.9,95.2c0-0.6-0.3-0.9-0.7-0.9c-0.5,0-0.8,0.4-0.8,0.9v1h1.5V95.2
		z"/>
	<path d="M28.9,94v0.9c0.2-0.6,0.7-0.9,1.1-1.1v0.6c-0.1,0-0.3,0.1-0.4,0.2c-0.4,0.2-0.6,0.8-0.7,0.9v3.7h-0.4V94H28.9z"/>
	<path d="M33.1,99.6c0,0.9-0.6,1.3-1.3,1.3c-0.4,0-0.9-0.1-1-0.5c-0.1-0.1-0.1-0.3-0.1-0.6h0.4c0,0,0,0.2,0.1,0.4
		c0.2,0.3,0.6,0.3,0.6,0.3c0.1,0,0.8-0.1,0.8-0.8v-0.9c-0.1,0.1-0.4,0.5-0.9,0.5c-0.7,0-1-0.6-1-1.2v-2.9c0-0.9,0.5-1.2,1.1-1.2
		c0.5,0,0.8,0.3,0.9,0.5V94h0.4V99.6z M32.6,95.1c-0.1-0.4-0.4-0.7-0.8-0.7c-0.6,0-0.7,0.5-0.7,0.9v2.6c0,0.7,0.3,0.9,0.7,0.9
		c0.3,0,0.7-0.2,0.8-0.8V95.1z"/>
	<path d="M39.9,99.2c0-0.5,0-5.1,0-6.8l-1.3,6.8h-0.5l-1.3-6.8v6.8h-0.5c0-0.5,0.1-7.3,0.1-7.3h0.7l1.2,6.3l1.2-6.3h0.7
		c0,0.8,0.1,7.3,0.1,7.3H39.9z"/>
	<path d="M43.9,98.1c0,0.6-0.3,1.2-1.2,1.2c-0.7,0-1.2-0.4-1.2-1.2v-2.8c0-0.6,0.3-1.2,1.2-1.2c0.8,0,1.2,0.4,1.2,1.4v1.3h-2V98
		c0,0.3,0.1,0.9,0.7,0.9c0.7,0,0.8-0.6,0.8-1.1v-0.4h0.4V98.1z M43.5,95.2c0-0.6-0.3-0.9-0.7-0.9c-0.5,0-0.8,0.4-0.8,0.9v1h1.5V95.2
		z"/>
	<path d="M46.9,99.2v-0.6c-0.1,0.2-0.4,0.6-1,0.6c-0.5,0-1-0.3-1-1.2v-2.8c0-0.9,0.5-1.3,1.1-1.3c0.6,0,0.8,0.4,0.9,0.5v-2.6h0.4
		v7.3H46.9z M46.9,95.3c-0.1-0.5-0.3-0.9-0.8-0.9c-0.5,0-0.7,0.4-0.7,0.8V98c0,0.3,0.1,0.9,0.7,0.9c0.4,0,0.7-0.4,0.8-0.8V95.3z"/>
	<path d="M48.5,93.4v-0.8H49v0.8H48.5z M48.5,99.2V94H49v5.2H48.5z"/>
	<path d="M52.6,99.2c-0.4,0-0.6-0.1-0.7-0.4c-0.2,0.1-0.5,0.4-1,0.4c-0.7,0-1-0.6-1-1.2c0-1.5,1.4-1.6,2-2.2v-0.7
		c0-0.4-0.1-0.7-0.6-0.7c-0.5,0-0.7,0.3-0.7,1v0.3h-0.4v-0.3c0-1,0.4-1.4,1.2-1.4c0.7,0,1.1,0.4,1.1,1.1v3.6c0,0.2,0.1,0.2,0.3,0.2
		L52.6,99.2L52.6,99.2z M52,96.3c-0.3,0.2-0.6,0.3-0.9,0.5c-0.5,0.3-0.7,0.6-0.7,1.2c0,0.2,0,0.8,0.7,0.8c0.4,0,0.7-0.2,0.9-0.5
		V96.3z"/>
	<path d="M56.9,92.3v6.9h-0.5v-6.9h-1.3v-0.5h3.1v0.5H56.9z"/>
	<path d="M60.6,98.1c0,0.6-0.3,1.2-1.2,1.2c-0.7,0-1.2-0.4-1.2-1.2v-2.8c0-0.6,0.3-1.2,1.2-1.2c0.8,0,1.2,0.4,1.2,1.4v1.3h-2V98
		c0,0.3,0.1,0.9,0.7,0.9c0.7,0,0.8-0.6,0.8-1.1v-0.4h0.4V98.1z M60.2,95.2c0-0.6-0.3-0.9-0.7-0.9c-0.5,0-0.8,0.4-0.8,0.9v1h1.5V95.2
		z"/>
	<path d="M64.1,97.9c0,0.8-0.3,1.4-1.3,1.4c-0.9,0-1.2-0.7-1.2-1.3v-2.6c0-1,0.5-1.3,1.2-1.3c0.8,0,1.2,0.5,1.2,1.4v0.5h-0.4v-0.4
		c0-0.5-0.1-1.1-0.8-1.1c-0.7,0-0.8,0.6-0.8,1v2.3c0,0.5,0,1.2,0.8,1.2c0.6,0,0.7-0.5,0.7-0.9v-0.8h0.5V97.9z"/>
	<path d="M67,99.2v-3.9c0-0.5-0.1-0.9-0.7-0.9c-0.5,0-0.8,0.4-0.8,0.7v4.2h-0.4v-7.3h0.4v2.5c0.1-0.1,0.4-0.5,0.9-0.5
		c0.4,0,1,0.2,1,1.1v4.2H67z"/>
	<path d="M70.6,99.2v-4.1c0-0.4-0.1-0.8-0.6-0.8c-0.4,0-0.7,0.2-0.9,0.7v4.3h-0.4V94h0.4v0.5c0.3-0.5,0.8-0.6,1-0.6
		c0.4,0,1,0.2,1,1.1v4.2H70.6z"/>
	<path d="M74.6,97.9c0,1-0.6,1.4-1.2,1.4c-0.7,0-1.2-0.4-1.2-1.1v-2.9c0-0.6,0.3-1.3,1.3-1.3c0.8,0,1.2,0.5,1.2,1.3V97.9z
		 M74.1,95.3c0-0.4-0.1-0.9-0.7-0.9c-0.7,0-0.8,0.5-0.8,1V98c0,0.6,0.3,0.8,0.8,0.8c0.7,0,0.8-0.6,0.8-0.9V95.3z"/>
	<path d="M75.6,99.2v-7.3h0.4v7.3H75.6z"/>
	<path d="M79.7,97.9c0,1-0.6,1.4-1.2,1.4c-0.7,0-1.2-0.4-1.2-1.1v-2.9c0-0.6,0.3-1.3,1.3-1.3c0.8,0,1.2,0.5,1.2,1.3V97.9z
		 M79.2,95.3c0-0.4-0.1-0.9-0.7-0.9c-0.7,0-0.8,0.5-0.8,1V98c0,0.6,0.3,0.8,0.8,0.8c0.7,0,0.8-0.6,0.8-0.9V95.3z"/>
	<path d="M83.2,99.6c0,0.9-0.6,1.3-1.3,1.3c-0.4,0-0.9-0.1-1-0.5c-0.1-0.1-0.1-0.3-0.1-0.6h0.4c0,0,0,0.2,0.1,0.4
		c0.2,0.3,0.6,0.3,0.6,0.3c0.1,0,0.8-0.1,0.8-0.8v-0.9c-0.1,0.1-0.4,0.5-0.9,0.5c-0.8,0-1-0.6-1-1.2v-2.9c0-0.9,0.5-1.2,1.1-1.2
		c0.5,0,0.8,0.3,0.9,0.5V94h0.4V99.6z M82.8,95.1c-0.1-0.4-0.4-0.7-0.8-0.7c-0.6,0-0.7,0.5-0.7,0.9v2.6c0,0.7,0.3,0.9,0.7,0.9
		c0.3,0,0.7-0.2,0.8-0.8V95.1z"/>
	<path d="M84.4,93.4v-0.8h0.4v0.8H84.4z M84.4,99.2V94h0.4v5.2H84.4z"/>
	<path d="M88.3,98.1c0,0.6-0.3,1.2-1.2,1.2c-0.7,0-1.2-0.4-1.2-1.2v-2.8c0-0.6,0.3-1.2,1.2-1.2c0.8,0,1.2,0.4,1.2,1.4v1.3h-2V98
		c0,0.3,0.1,0.9,0.7,0.9c0.7,0,0.8-0.6,0.8-1.1v-0.4h0.4V98.1z M87.9,95.2c0-0.6-0.3-0.9-0.7-0.9c-0.5,0-0.8,0.4-0.8,0.9v1h1.5V95.2
		z"/>
	<path d="M89.6,97.4v0.5c0,0.3,0,1,0.8,1c0.4,0,0.8-0.2,0.8-0.9c0-0.5-0.1-0.7-0.9-1.3c-0.6-0.5-0.9-0.8-0.9-1.6
		c0-0.4,0.1-1.1,1.1-1.1c1.1,0,1.1,0.8,1.1,1.2v0.4h-0.4v-0.4c0-0.6-0.2-0.8-0.6-0.8c-0.6,0-0.7,0.4-0.7,0.7c0,0.5,0,0.6,1,1.4
		c0.5,0.4,0.8,0.7,0.8,1.4c0,0.8-0.3,1.3-1.2,1.3c-1.1,0-1.2-0.6-1.2-1.5v-0.4H89.6z"/>
	<path d="M97.2,99.2v-0.6c-0.1,0.2-0.5,0.7-1.2,0.7c-0.4,0-0.9-0.2-1.1-0.6c-0.2-0.4-0.3-0.7-0.3-1.4v-3.9c0-1,0.4-1.6,1.5-1.6
		c1.1,0,1.4,0.7,1.4,1.3v1.1h-0.5v-0.9c0-0.6-0.1-1.1-1-1.1c-0.8,0-1,0.6-1,1.2v3.8c0,0.6,0,0.9,0.1,1.2c0.1,0.2,0.3,0.5,0.8,0.5
		c0.7,0,1-0.8,1-1.2v-1.3H96v-0.4h1.6v3.4H97.2z"/>
	<path d="M102.7,99.2v-4c0-0.5-0.1-0.9-0.7-0.9c-0.4,0-0.7,0.3-0.9,0.6v4.2h-0.4v-4.2c0-0.5-0.2-0.7-0.7-0.7c-0.5,0-0.8,0.4-0.8,0.6
		v4.3h-0.4V94h0.4v0.4c0.1-0.2,0.5-0.5,1-0.5c0.6,0,0.8,0.4,0.9,0.6c0.1-0.2,0.4-0.6,1.1-0.6c0.5,0,1,0.3,1,1.2v4.2H102.7z"/>
	<path d="M104.3,91.9h0.4v2.6c0.3-0.4,0.7-0.5,1-0.5c0.9,0,1,0.8,1,1.3V98c0,0.5-0.3,1.2-1.1,1.2c-0.1,0-0.6,0-0.8-0.5v0.4h-0.5
		V91.9z M104.8,97.8c0,0.9,0.6,1,0.8,1c0.5,0,0.7-0.4,0.7-1v-2.6c0-0.2,0-0.9-0.7-0.9c-0.5,0-0.8,0.4-0.8,0.9V97.8z"/>
	<path d="M110.2,99.2v-3.4h-1.8v3.4h-0.5v-7h0.5v3.1h1.8v-3.1h0.5v7H110.2z"/>
</g>
</svg>
