<?xml version="1.0" encoding="utf-8"?>
<!-- Generator: Adobe Illustrator 22.0.1, SVG Export Plug-In . SVG Version: 6.00 Build 0)  -->
<svg version="1.1" id="Layer_1" xmlns="http://www.w3.org/2000/svg" xmlns:xlink="http://www.w3.org/1999/xlink" x="0px" y="0px"
	 viewBox="0 0 116.2 74.7" style="enable-background:new 0 0 116.2 74.7;" xml:space="preserve">
<style type="text/css">
	.st0{fill-rule:evenodd;clip-rule:evenodd;fill:#030304;stroke:#FFFFFF;stroke-width:0.7418;stroke-miterlimit:10;}
	.st1{fill-rule:evenodd;clip-rule:evenodd;fill:#FFFFFF;}
	.st2{fill:#030304;}
	.st3{fill-rule:evenodd;clip-rule:evenodd;fill:#030304;}
	.st4{fill:#FFFFFF;}
</style>
<g>
	<rect x="1.8" y="0.6" class="st0" width="112.8" height="73.7"/>
</g>
<rect x="3.6" y="2.7" class="st1" width="109.2" height="69.5"/>
<g>
	<path class="st2" d="M20.3,58c-0.4,0.9-1.6,3.3-4.7,3.3c-2.6,0-5.1-1.7-5.1-5.8c0-2.4,1.4-5.6,5.1-5.6c2.8,0,3.9,1.8,4.4,3.3
		l-2,0.5c-0.1-1.2-1.1-2-2.3-2c-1.8,0-3,1.3-3,3.8c0,1.5,0.6,3.8,3,3.8c1.4,0,2.3-1.1,2.6-2.2L20.3,58z"/>
	<path class="st2" d="M26.8,49.9c3.3,0,5.2,2.7,5.2,5.6c0,2.5-1.3,5.8-5.2,5.8c-3.2,0-5.2-2.6-5.2-5.7
		C21.6,52.4,23.6,49.9,26.8,49.9z M26.8,59.4c1.6,0,3.1-1.2,3.1-3.7c0-1.9-1-3.9-3.2-3.9c-1.8,0-3.1,1.4-3.1,3.8
		C23.7,57.2,24.5,59.4,26.8,59.4z"/>
	<path class="st2" d="M41.9,61c0-0.3,0.2-8.9,0.2-8.9L39.8,61h-1.8l-2.3-8.9c0,0,0.2,8.5,0.2,8.9h-2V50.2h2.9l2.1,8l2.1-8h2.9V61
		H41.9z"/>
	<path class="st2" d="M51.2,50.2c2.2,0,3.8,1.4,3.8,3.6c0,2-1.1,3.5-4,3.5H49V61h-2V50.2H51.2z M49,55.7h1.8c1.4,0,2.2-0.7,2.2-1.9
		c0-1.7-1.4-1.8-2.4-1.8H49V55.7z"/>
	<path class="st2" d="M62.6,61l-0.6-2.1h-4.1L57.3,61h-2.2l3.7-10.8H61L64.7,61H62.6z M59.9,52.1l-1.5,5h3L59.9,52.1z"/>
	<path class="st2" d="M68.9,52v9h-2v-9H64v-1.8h8V52H68.9z"/>
	<path class="st2" d="M73.5,61V50.2h2V61H73.5z"/>
	<path class="st2" d="M83.4,50.2c2.3,0,3.3,1.3,3.3,2.7c0,0.9-0.5,2.1-1.8,2.2c1,0.2,2.3,1,2.3,2.9c0,1.5-0.9,3.1-3.6,3.1h-5V50.2
		H83.4z M80.6,54.5h2c0.9,0,2-0.3,2-1.4c0-1.1-1.1-1.3-1.9-1.3h-2.1V54.5z M80.6,59.3h2.7c1.4,0,1.9-0.7,1.9-1.5
		c0-1.5-1.5-1.7-2.3-1.7h-2.3V59.3z"/>
	<path class="st2" d="M89.8,61V50.2h2v9h4.3V61H89.8z"/>
	<path class="st2" d="M97.4,61V50.2h7.7V52h-5.7v2.5h5.2v1.7h-5.2v2.9h6.1V61H97.4z"/>
</g>
<path class="st3" d="M69.3,18.5h36.2l0.1,6.4h-1.7c-0.6-2.2-2.2-3.7-4.9-4.4c-1.5-0.4-3.8-0.7-6.8-0.7v16c0,1.1,0.4,1.6,1.1,1.9
	c0.8,0.4,2.4,0.4,4.8,0.4v1.4H76.8V38c2.3,0,3.9-0.2,4.7-0.5c0.8-0.4,1.2-0.7,1.2-1.8v-16c-2.9,0-5.2,0.3-6.7,0.7
	c-2.9,0.8-4.5,2.3-4.9,4.4c-0.5,0-1.7,0-1.7,0L69.3,18.5z"/>
<g>
	<path class="st3" d="M40.9,29.3l3.3,0.4l0.1,0.1c1.3,2.7,3.4,4.8,6.3,6c2.9,1.3,6.3,1.9,10.1,1.9c3.7,0,6.3-0.4,7.8-1.3
		c1.5-0.8,2.2-1.7,2.2-2.6c0-1-0.8-1.9-2.3-2.5c-1.1-0.5-3.3-1.1-6.5-1.8l-5.3-1.2c-5.2-1.2-9-2.4-11.1-3.6C43.1,23.5,42,22,42,20.2
		c0-1.9,1.5-3.7,4.4-5.4c2.9-1.6,7.3-2.4,13.2-2.4c3,0,5.9,0.2,8.7,0.6c1.8,0.3,4.3,0.6,4.8,0.6c1.1,0,1.5-0.2,1.7-0.3
		c0.3-0.2,0.6-0.5,0.8-0.9l0.1-0.1h2.8V21h-2.6l-0.1-0.1c-1.1-1.9-3-3.5-5.7-4.8c-2.7-1.4-6-2-9.8-2c-2.7,0-4.9,0.3-6.4,1
		c-1.5,0.6-2.2,1.4-2.2,2.3c0,1.1,0.7,1.9,2.1,2.5c1.5,0.6,4.8,1.5,9.8,2.6l6.1,1.4c2.7,0.6,4.9,1.3,6.5,2.1
		c3.1,1.5,4.7,3.3,4.7,5.4c0,2-1.7,3.9-5,5.6c-3.2,1.7-8.5,2.6-15.6,2.6c-1.6,0-3.3-0.1-5-0.2c-1.7-0.1-3.4-0.4-5-0.6l-1.6-0.3
		c-0.4,0-0.7-0.1-1-0.1c-0.3,0-0.6-0.1-0.9-0.1c-0.8,0-1.3,0.1-1.6,0.3c-0.3,0.2-0.5,0.5-0.8,0.9l-0.1,0.1l-3.2,0V29.3z"/>
	<path class="st4" d="M78.1,12.6v8.2h-2.3c-1.1-1.9-3-3.5-5.7-4.9c-2.7-1.4-6-2.1-9.9-2.1c-2.8,0-4.9,0.3-6.5,1
		c-1.6,0.7-2.4,1.5-2.4,2.5c0,1.2,0.8,2.1,2.3,2.7c1.5,0.6,4.8,1.5,9.9,2.6l6.1,1.4c2.7,0.6,4.9,1.3,6.5,2.1c3,1.4,4.5,3.2,4.5,5.2
		c0,1.9-1.6,3.7-4.9,5.4c-3.2,1.7-8.4,2.5-15.5,2.5c-1.6,0-3.3-0.1-5-0.2c-1.7-0.1-3.3-0.3-5-0.6l-1.6-0.3c-0.4,0-0.7-0.1-1.1-0.1
		c-0.3,0-0.6-0.1-0.9-0.1c-0.8,0-1.4,0.1-1.7,0.3c-0.3,0.2-0.6,0.5-0.8,1l-2.9,0v-9.7l2.9,0.4c1.3,2.8,3.4,4.9,6.4,6.1
		c3,1.3,6.3,1.9,10.1,1.9c3.7,0,6.3-0.4,7.9-1.3c1.6-0.9,2.3-1.8,2.3-2.8c0-1.1-0.8-2-2.5-2.8c-1.1-0.5-3.3-1.1-6.5-1.8l-5.3-1.2
		c-5.2-1.2-8.9-2.4-11.1-3.6c-2.1-1.2-3.2-2.6-3.2-4.4c0-1.8,1.4-3.6,4.2-5.2c2.9-1.6,7.2-2.4,13.1-2.4c3,0,5.9,0.2,8.6,0.6
		c2.8,0.4,4.4,0.6,4.8,0.6c0.9,0,1.5-0.1,1.9-0.3c0.3-0.2,0.6-0.6,0.8-1H78.1 M78.5,12.1h-0.5h-2.4h-0.3l-0.1,0.2
		c-0.2,0.3-0.4,0.6-0.7,0.8c-0.1,0.1-0.5,0.3-1.6,0.3c-0.5,0-3.7-0.5-4.7-0.6c-2.8-0.4-5.7-0.6-8.7-0.6c-5.9,0-10.4,0.8-13.3,2.5
		c-3,1.7-4.5,3.5-4.5,5.6c0,1.9,1.2,3.5,3.5,4.8c2.2,1.2,5.9,2.4,11.2,3.6l5.3,1.2c3.2,0.7,5.4,1.3,6.5,1.8c1.4,0.6,2.2,1.4,2.2,2.3
		c0,0.8-0.7,1.6-2.1,2.4c-1.5,0.8-4.1,1.2-7.7,1.2c-3.7,0-7.1-0.6-10-1.9c-2.8-1.2-4.9-3.2-6.1-5.9l-0.1-0.2l-0.3,0l-2.9-0.4
		L40.7,29v0.5v9.7v0.5l0.5,0l2.9,0l0.3,0l0.1-0.2c0.2-0.4,0.4-0.6,0.7-0.8c0.1-0.1,0.5-0.3,1.5-0.3c0.2,0,0.5,0,0.8,0.1
		c0.3,0,0.7,0.1,1.1,0.1l1.6,0.3c1.6,0.3,3.3,0.5,5,0.6c1.7,0.1,3.4,0.2,5,0.2c7.2,0,12.5-0.9,15.8-2.6c3.4-1.8,5.1-3.7,5.1-5.8
		c0-2.2-1.6-4.1-4.8-5.6c-1.6-0.8-3.9-1.5-6.6-2.1l-6.1-1.4c-5-1.1-8.3-2-9.8-2.6c-1.3-0.5-2-1.3-2-2.2c0-0.8,0.7-1.5,2.1-2.1
		c1.5-0.7,3.7-1,6.4-1c3.8,0,7.1,0.7,9.7,2c2.7,1.3,4.5,2.9,5.6,4.7l0.1,0.2h0.3h2.3h0.5v-0.5v-8.2V12.1L78.5,12.1z"/>
</g>
<g>
	<g>
		<path class="st3" d="M28.3,40.1L13.2,22.4c-0.6-0.7-1.2-1.2-1.8-1.5c-0.6-0.3-2.3-0.5-3.8-0.5l-0.2,0v-1.4h21v1.5l-0.2,0
			c-2.1,0.1-3.4,0.2-4.1,0.3c-0.7,0.1-0.7,0.4-0.7,0.7c0,0.1,0,0.3,0,0.4c0,0.1,0.1,0.2,0.2,0.3l8.8,10.8h0.1l7.6-9.9
			c0.2-0.2,0.3-0.4,0.4-0.6c0.2-0.3,0.3-0.6,0.3-0.8c0-0.3-0.1-0.7-0.8-0.8c-0.6-0.1-2-0.2-4-0.3l-0.2,0v-1.5h13.8v1.4l-0.2,0
			c-1.5,0.1-3.4,0.3-4,0.6c-0.7,0.3-1.3,0.9-2,1.7L30.1,40.1H28.3z"/>
		<path class="st4" d="M49.5,19.1v1c-1.4,0.1-3.4,0.3-4.1,0.6c-0.7,0.3-1.4,0.9-2.1,1.8L30,39.8h-1.6L13.3,22.2
			c-0.6-0.7-1.2-1.2-1.9-1.5c-0.6-0.3-2.5-0.5-3.9-0.6v-1h20.5v1c-2.1,0.1-3.5,0.2-4.1,0.3c-0.6,0.1-0.9,0.4-0.9,0.9
			c0,0.1,0,0.3,0.1,0.4c0.1,0.1,0.2,0.3,0.3,0.4L32.4,33h0.3l7.7-9.9c0.2-0.2,0.3-0.4,0.5-0.7c0.2-0.4,0.3-0.7,0.3-0.9
			c0-0.6-0.3-0.9-1-1c-0.6-0.1-2-0.3-4-0.3v-1H49.5 M50,18.7h-0.5H36.2h-0.5v0.5v1v0.5l0.5,0c2,0.1,3.3,0.2,3.9,0.3
			c0.6,0.1,0.6,0.4,0.6,0.6c0,0.1,0,0.3-0.3,0.7c-0.1,0.2-0.3,0.4-0.4,0.6l-7.5,9.7l-8.7-10.6c-0.1-0.1-0.2-0.2-0.2-0.3
			c0-0.1,0-0.2,0-0.3c0-0.1,0-0.3,0.5-0.4c0.6-0.1,1.9-0.2,4-0.3l0.5,0v-0.5v-1v-0.5h-0.5H7.6H7.1v0.5v1v0.4l0.4,0
			c1.7,0.1,3.2,0.3,3.7,0.5c0.6,0.3,1.2,0.8,1.7,1.4l15.1,17.6l0.1,0.2h0.2H30h0.2l0.1-0.2l13.4-17.3c0.6-0.8,1.3-1.3,1.9-1.6
			c0.5-0.3,2.1-0.5,3.9-0.6l0.4,0v-0.4v-1V18.7L50,18.7z"/>
	</g>
</g>
<g>
	<path class="st2" d="M106,14c-2.4,0-4.4-2-4.4-4.4s2-4.4,4.4-4.4c2.4,0,4.4,2,4.4,4.3C110.4,12.1,108.5,14,106,14z M106,5.6
		c-2.2,0-4,1.8-4,4s1.7,4,4,4c2.2,0,4-1.8,4-3.9C110,7.4,108.3,5.6,106,5.6z M105.9,6.8c1.4,0,2,0.5,2,1.6c0,0.9-0.4,1.3-1.2,1.6
		l1.3,2.4h-1l-1.2-2.3h-0.7v2.3h-0.9V6.8H105.9z M105.1,9.3h0.7c0.8,0,1.1-0.3,1.1-0.9c0-0.6-0.4-0.9-1.2-0.9h-0.6V9.3z"/>
</g>
</svg>
